<svg width="500" height="228" viewBox="0 0 500 228" fill="none" xmlns="http://www.w3.org/2000/svg">
<g clip-path="url(#clip0_75_2701)">
<path d="M23.1393 23.5836H0.444302C0.195493 23.5836 0 23.3881 0 23.1393C0 22.8905 0.195493 22.695 0.444302 22.695H22.695V0.444302C22.695 0.195493 22.8905 0 23.1393 0C23.3881 0 23.5836 0.195493 23.5836 0.444302V23.1393C23.5836 23.3881 23.3881 23.5836 23.1393 23.5836Z" fill="#1F0202"/>
<path d="M45.8165 23.5836H23.1215C22.8727 23.5836 22.6772 23.3881 22.6772 23.1393V0.444302C22.6772 0.195493 22.8727 0 23.1215 0C23.3704 0 23.5659 0.195493 23.5659 0.444302V22.695H45.3722V0.444302C45.3722 0.195493 45.5677 0 45.8165 0C46.0653 0 46.2608 0.195493 46.2608 0.444302V23.1393C46.2608 23.3881 46.0653 23.5836 45.8165 23.5836Z" fill="#1F0202"/>
<path d="M23.1393 46.2608H0.444302C0.195493 46.2608 0 46.0653 0 45.8165C0 45.5677 0.195493 45.3722 0.444302 45.3722H22.695V23.5659H0.444302C0.195493 23.5659 0 23.3704 0 23.1215C0 22.8727 0.195493 22.6772 0.444302 22.6772H23.1393C23.3881 22.6772 23.5836 22.8727 23.5836 23.1215V45.8165C23.5836 46.0653 23.3881 46.2608 23.1393 46.2608Z" fill="#1F0202"/>
<path d="M23.1393 68.9556H0.444302C0.195493 68.9556 0 68.7601 0 68.5113C0 68.2625 0.195493 68.067 0.444302 68.067H22.695V46.2607H0.444302C0.195493 46.2607 0 46.0652 0 45.8164C0 45.5676 0.195493 45.3721 0.444302 45.3721H23.1393C23.3881 45.3721 23.5836 45.5676 23.5836 45.8164V68.5113C23.5836 68.7601 23.3881 68.9556 23.1393 68.9556Z" fill="#1F0202"/>
<path d="M23.1393 91.6329H0.444302C0.195493 91.6329 0 91.4374 0 91.1886C0 90.9398 0.195493 90.7443 0.444302 90.7443H22.695V68.9379H0.444302C0.195493 68.9379 0 68.7424 0 68.4936C0 68.2448 0.195493 68.0493 0.444302 68.0493H23.1393C23.3881 68.0493 23.5836 68.2448 23.5836 68.4936V91.1886C23.5836 91.4374 23.3881 91.6329 23.1393 91.6329Z" fill="#1F0202"/>
<path d="M23.1393 114.328H0.444302C0.195493 114.328 0 114.132 0 113.883C0 113.635 0.195493 113.439 0.444302 113.439H22.695V91.6327H0.444302C0.195493 91.6327 0 91.4373 0 91.1884C0 90.9396 0.195493 90.7441 0.444302 90.7441H23.1393C23.3881 90.7441 23.5836 90.9396 23.5836 91.1884V113.883C23.5836 114.132 23.3881 114.328 23.1393 114.328Z" fill="#1F0202"/>
<path d="M23.1393 137.005H0.444302C0.195493 137.005 0 136.809 0 136.561C0 136.312 0.195493 136.116 0.444302 136.116H22.695V114.31H0.444302C0.195493 114.31 0 114.114 0 113.866C0 113.617 0.195493 113.421 0.444302 113.421H23.1393C23.3881 113.421 23.5836 113.617 23.5836 113.866V136.561C23.5836 136.809 23.3881 137.005 23.1393 137.005Z" fill="#1F0202"/>
<path d="M23.1393 159.7H0.444302C0.195493 159.7 0 159.504 0 159.255C0 159.007 0.195493 158.811 0.444302 158.811H22.695V137.005H0.444302C0.195493 137.005 0 136.809 0 136.561C0 136.312 0.195493 136.116 0.444302 136.116H23.1393C23.3881 136.116 23.5836 136.312 23.5836 136.561V159.255C23.5836 159.504 23.3881 159.7 23.1393 159.7Z" fill="#1F0202"/>
<path d="M23.1393 182.377H0.444302C0.195493 182.377 0 182.182 0 181.933C0 181.684 0.195493 181.488 0.444302 181.488H22.695V159.682H0.444302C0.195493 159.682 0 159.487 0 159.238C0 158.989 0.195493 158.793 0.444302 158.793H23.1393C23.3881 158.793 23.5836 158.989 23.5836 159.238V181.933C23.5836 182.182 23.3881 182.377 23.1393 182.377Z" fill="#1F0202"/>
<path d="M23.1393 205.072H0.444302C0.195493 205.072 0 204.877 0 204.628C0 204.379 0.195493 204.184 0.444302 204.184H22.695V182.377H0.444302C0.195493 182.377 0 182.182 0 181.933C0 181.684 0.195493 181.489 0.444302 181.489H23.1393C23.3881 181.489 23.5836 181.684 23.5836 181.933V204.628C23.5836 204.877 23.3881 205.072 23.1393 205.072Z" fill="#1F0202"/>
<path d="M23.1393 227.75H0.444302C0.195493 227.75 0 227.554 0 227.305C0 227.056 0.195493 226.861 0.444302 226.861H22.695V205.055H0.444302C0.195493 205.055 0 204.859 0 204.61C0 204.362 0.195493 204.166 0.444302 204.166H23.1393C23.3881 204.166 23.5836 204.362 23.5836 204.61V227.305C23.5836 227.554 23.3881 227.75 23.1393 227.75Z" fill="#1F0202"/>
<path d="M45.8165 46.2608H23.1215C22.8727 46.2608 22.6772 46.0653 22.6772 45.8165V23.1215C22.6772 22.8727 22.8727 22.6772 23.1215 22.6772H45.8165C46.0653 22.6772 46.2608 22.8727 46.2608 23.1215V45.8165C46.2608 46.0653 46.0653 46.2608 45.8165 46.2608ZM23.5659 45.3722H45.3722V23.5659H23.5659V45.3722Z" fill="#1F0202"/>
<path d="M45.8165 68.9556H23.1215C22.8727 68.9556 22.6772 68.7601 22.6772 68.5113V45.8164C22.6772 45.5676 22.8727 45.3721 23.1215 45.3721H45.8165C46.0653 45.3721 46.2608 45.5676 46.2608 45.8164V68.5113C46.2608 68.7601 46.0653 68.9556 45.8165 68.9556ZM23.5659 68.067H45.3722V46.2607H23.5659V68.067Z" fill="#1F0202"/>
<path d="M45.8165 91.6329H23.1215C22.8727 91.6329 22.6772 91.4374 22.6772 91.1886V68.4936C22.6772 68.2448 22.8727 68.0493 23.1215 68.0493H45.8165C46.0653 68.0493 46.2608 68.2448 46.2608 68.4936V91.1886C46.2608 91.4374 46.0653 91.6329 45.8165 91.6329ZM23.5659 90.7443H45.3722V68.9379H23.5659V90.7443Z" fill="#1F0202"/>
<path d="M45.8165 114.328H23.1215C22.8727 114.328 22.6772 114.132 22.6772 113.883V91.1884C22.6772 90.9396 22.8727 90.7441 23.1215 90.7441H45.8165C46.0653 90.7441 46.2608 90.9396 46.2608 91.1884V113.883C46.2608 114.132 46.0653 114.328 45.8165 114.328ZM23.5659 113.439H45.3722V91.6327H23.5659V113.439Z" fill="#1F0202"/>
<path d="M45.8165 137.005H23.1215C22.8727 137.005 22.6772 136.809 22.6772 136.561V113.866C22.6772 113.617 22.8727 113.421 23.1215 113.421H45.8165C46.0653 113.421 46.2608 113.617 46.2608 113.866V136.561C46.2608 136.809 46.0653 137.005 45.8165 137.005ZM23.5659 136.116H45.3722V114.31H23.5659V136.116Z" fill="#1F0202"/>
<path d="M45.8165 159.7H23.1215C22.8727 159.7 22.6772 159.504 22.6772 159.255V136.561C22.6772 136.312 22.8727 136.116 23.1215 136.116H45.8165C46.0653 136.116 46.2608 136.312 46.2608 136.561V159.255C46.2608 159.504 46.0653 159.7 45.8165 159.7ZM23.5659 158.811H45.3722V137.005H23.5659V158.811Z" fill="#1F0202"/>
<path d="M45.8165 182.377H23.1215C22.8727 182.377 22.6772 182.182 22.6772 181.933V159.238C22.6772 158.989 22.8727 158.793 23.1215 158.793H45.8165C46.0653 158.793 46.2608 158.989 46.2608 159.238V181.933C46.2608 182.182 46.0653 182.377 45.8165 182.377ZM23.5659 181.488H45.3722V159.682H23.5659V181.488Z" fill="#1F0202"/>
<path d="M45.8165 205.072H23.1215C22.8727 205.072 22.6772 204.877 22.6772 204.628V181.933C22.6772 181.684 22.8727 181.489 23.1215 181.489H45.8165C46.0653 181.489 46.2608 181.684 46.2608 181.933V204.628C46.2608 204.877 46.0653 205.072 45.8165 205.072ZM23.5659 204.184H45.3722V182.377H23.5659V204.184Z" fill="#1F0202"/>
<path d="M45.8165 227.75H23.1215C22.8727 227.75 22.6772 227.554 22.6772 227.305V204.61C22.6772 204.362 22.8727 204.166 23.1215 204.166H45.8165C46.0653 204.166 46.2608 204.362 46.2608 204.61V227.305C46.2608 227.554 46.0653 227.75 45.8165 227.75ZM23.5659 226.861H45.3722V205.055H23.5659V226.861Z" fill="#1F0202"/>
<path d="M68.5113 23.5836H45.8164C45.5676 23.5836 45.3721 23.3881 45.3721 23.1393V0.444302C45.3721 0.195493 45.5676 0 45.8164 0C46.0652 0 46.2607 0.195493 46.2607 0.444302V22.695H68.067V0.444302C68.067 0.195493 68.2625 0 68.5113 0C68.7601 0 68.9556 0.195493 68.9556 0.444302V23.1393C68.9556 23.3881 68.7601 23.5836 68.5113 23.5836Z" fill="#1F0202"/>
<path d="M68.5113 46.2608H45.8164C45.5676 46.2608 45.3721 46.0653 45.3721 45.8165V23.1215C45.3721 22.8727 45.5676 22.6772 45.8164 22.6772H68.5113C68.7601 22.6772 68.9556 22.8727 68.9556 23.1215V45.8165C68.9556 46.0653 68.7601 46.2608 68.5113 46.2608ZM46.2607 45.3722H68.067V23.5659H46.2607V45.3722Z" fill="#1F0202"/>
<path d="M68.5113 68.9556H45.8164C45.5676 68.9556 45.3721 68.7601 45.3721 68.5113V45.8164C45.3721 45.5676 45.5676 45.3721 45.8164 45.3721H68.5113C68.7601 45.3721 68.9556 45.5676 68.9556 45.8164V68.5113C68.9556 68.7601 68.7601 68.9556 68.5113 68.9556ZM46.2607 68.067H68.067V46.2607H46.2607V68.067Z" fill="#1F0202"/>
<path d="M68.5113 91.6329H45.8164C45.5676 91.6329 45.3721 91.4374 45.3721 91.1886V68.4936C45.3721 68.2448 45.5676 68.0493 45.8164 68.0493H68.5113C68.7601 68.0493 68.9556 68.2448 68.9556 68.4936V91.1886C68.9556 91.4374 68.7601 91.6329 68.5113 91.6329ZM46.2607 90.7443H68.067V68.9379H46.2607V90.7443Z" fill="#1F0202"/>
<path d="M68.5113 114.328H45.8164C45.5676 114.328 45.3721 114.132 45.3721 113.883V91.1884C45.3721 90.9396 45.5676 90.7441 45.8164 90.7441H68.5113C68.7601 90.7441 68.9556 90.9396 68.9556 91.1884V113.883C68.9556 114.132 68.7601 114.328 68.5113 114.328ZM46.2607 113.439H68.067V91.6327H46.2607V113.439Z" fill="#1F0202"/>
<path d="M68.5113 137.005H45.8164C45.5676 137.005 45.3721 136.809 45.3721 136.561V113.866C45.3721 113.617 45.5676 113.421 45.8164 113.421H68.5113C68.7601 113.421 68.9556 113.617 68.9556 113.866V136.561C68.9556 136.809 68.7601 137.005 68.5113 137.005ZM46.2607 136.116H68.067V114.31H46.2607V136.116Z" fill="#1F0202"/>
<path d="M68.5113 159.7H45.8164C45.5676 159.7 45.3721 159.504 45.3721 159.255V136.561C45.3721 136.312 45.5676 136.116 45.8164 136.116H68.5113C68.7601 136.116 68.9556 136.312 68.9556 136.561V159.255C68.9556 159.504 68.7601 159.7 68.5113 159.7ZM46.2607 158.811H68.067V137.005H46.2607V158.811Z" fill="#1F0202"/>
<path d="M68.5113 182.377H45.8164C45.5676 182.377 45.3721 182.182 45.3721 181.933V159.238C45.3721 158.989 45.5676 158.793 45.8164 158.793H68.5113C68.7601 158.793 68.9556 158.989 68.9556 159.238V181.933C68.9556 182.182 68.7601 182.377 68.5113 182.377ZM46.2607 181.488H68.067V159.682H46.2607V181.488Z" fill="#1F0202"/>
<path d="M68.5113 205.072H45.8164C45.5676 205.072 45.3721 204.877 45.3721 204.628V181.933C45.3721 181.684 45.5676 181.489 45.8164 181.489H68.5113C68.7601 181.489 68.9556 181.684 68.9556 181.933V204.628C68.9556 204.877 68.7601 205.072 68.5113 205.072ZM46.2607 204.184H68.067V182.377H46.2607V204.184Z" fill="#1F0202"/>
<path d="M68.5113 227.75H45.8164C45.5676 227.75 45.3721 227.554 45.3721 227.305V204.61C45.3721 204.362 45.5676 204.166 45.8164 204.166H68.5113C68.7601 204.166 68.9556 204.362 68.9556 204.61V227.305C68.9556 227.554 68.7601 227.75 68.5113 227.75ZM46.2607 226.861H68.067V205.055H46.2607V226.861Z" fill="#1F0202"/>
<path d="M91.1886 23.5836H68.4936C68.2448 23.5836 68.0493 23.3881 68.0493 23.1393V0.444302C68.0493 0.195493 68.2448 0 68.4936 0C68.7424 0 68.9379 0.195493 68.9379 0.444302V22.695H90.7443V0.444302C90.7443 0.195493 90.9398 0 91.1886 0C91.4374 0 91.6329 0.195493 91.6329 0.444302V23.1393C91.6329 23.3881 91.4374 23.5836 91.1886 23.5836Z" fill="#1F0202"/>
<path d="M91.1886 46.2608H68.4936C68.2448 46.2608 68.0493 46.0653 68.0493 45.8165V23.1215C68.0493 22.8727 68.2448 22.6772 68.4936 22.6772H91.1886C91.4374 22.6772 91.6329 22.8727 91.6329 23.1215V45.8165C91.6329 46.0653 91.4374 46.2608 91.1886 46.2608ZM68.9379 45.3722H90.7443V23.5659H68.9379V45.3722Z" fill="#1F0202"/>
<path d="M91.1886 68.9556H68.4936C68.2448 68.9556 68.0493 68.7601 68.0493 68.5113V45.8164C68.0493 45.5676 68.2448 45.3721 68.4936 45.3721H91.1886C91.4374 45.3721 91.6329 45.5676 91.6329 45.8164V68.5113C91.6329 68.7601 91.4374 68.9556 91.1886 68.9556ZM68.9379 68.067H90.7443V46.2607H68.9379V68.067Z" fill="#1F0202"/>
<path d="M91.1886 91.6329H68.4936C68.2448 91.6329 68.0493 91.4374 68.0493 91.1886V68.4936C68.0493 68.2448 68.2448 68.0493 68.4936 68.0493H91.1886C91.4374 68.0493 91.6329 68.2448 91.6329 68.4936V91.1886C91.6329 91.4374 91.4374 91.6329 91.1886 91.6329ZM68.9379 90.7443H90.7443V68.9379H68.9379V90.7443Z" fill="#1F0202"/>
<path d="M91.1886 114.328H68.4936C68.2448 114.328 68.0493 114.132 68.0493 113.883V91.1884C68.0493 90.9396 68.2448 90.7441 68.4936 90.7441H91.1886C91.4374 90.7441 91.6329 90.9396 91.6329 91.1884V113.883C91.6329 114.132 91.4374 114.328 91.1886 114.328ZM68.9379 113.439H90.7443V91.6327H68.9379V113.439Z" fill="#1F0202"/>
<path d="M91.1886 137.005H68.4936C68.2448 137.005 68.0493 136.809 68.0493 136.561V113.866C68.0493 113.617 68.2448 113.421 68.4936 113.421H91.1886C91.4374 113.421 91.6329 113.617 91.6329 113.866V136.561C91.6329 136.809 91.4374 137.005 91.1886 137.005ZM68.9379 136.116H90.7443V114.31H68.9379V136.116Z" fill="#1F0202"/>
<path d="M91.1886 159.7H68.4936C68.2448 159.7 68.0493 159.504 68.0493 159.255V136.561C68.0493 136.312 68.2448 136.116 68.4936 136.116H91.1886C91.4374 136.116 91.6329 136.312 91.6329 136.561V159.255C91.6329 159.504 91.4374 159.7 91.1886 159.7ZM68.9379 158.811H90.7443V137.005H68.9379V158.811Z" fill="#1F0202"/>
<path d="M91.1886 182.377H68.4936C68.2448 182.377 68.0493 182.182 68.0493 181.933V159.238C68.0493 158.989 68.2448 158.793 68.4936 158.793H91.1886C91.4374 158.793 91.6329 158.989 91.6329 159.238V181.933C91.6329 182.182 91.4374 182.377 91.1886 182.377ZM68.9379 181.488H90.7443V159.682H68.9379V181.488Z" fill="#1F0202"/>
<path d="M91.1886 205.072H68.4936C68.2448 205.072 68.0493 204.877 68.0493 204.628V181.933C68.0493 181.684 68.2448 181.489 68.4936 181.489H91.1886C91.4374 181.489 91.6329 181.684 91.6329 181.933V204.628C91.6329 204.877 91.4374 205.072 91.1886 205.072ZM68.9379 204.184H90.7443V182.377H68.9379V204.184Z" fill="#1F0202"/>
<path d="M91.1886 227.75H68.4936C68.2448 227.75 68.0493 227.554 68.0493 227.305V204.61C68.0493 204.362 68.2448 204.166 68.4936 204.166H91.1886C91.4374 204.166 91.6329 204.362 91.6329 204.61V227.305C91.6329 227.554 91.4374 227.75 91.1886 227.75ZM68.9379 226.861H90.7443V205.055H68.9379V226.861Z" fill="#1F0202"/>
<path d="M113.884 23.5836H91.1887C90.9399 23.5836 90.7444 23.3881 90.7444 23.1393V0.444302C90.7444 0.195493 90.9399 0 91.1887 0C91.4375 0 91.633 0.195493 91.633 0.444302V22.695H113.439V0.444302C113.439 0.195493 113.635 0 113.884 0C114.132 0 114.328 0.195493 114.328 0.444302V23.1393C114.328 23.3881 114.132 23.5836 113.884 23.5836Z" fill="#1F0202"/>
<path d="M113.884 46.2608H91.1887C90.9399 46.2608 90.7444 46.0653 90.7444 45.8165V23.1215C90.7444 22.8727 90.9399 22.6772 91.1887 22.6772H113.884C114.132 22.6772 114.328 22.8727 114.328 23.1215V45.8165C114.328 46.0653 114.132 46.2608 113.884 46.2608ZM91.633 45.3722H113.439V23.5659H91.633V45.3722Z" fill="#1F0202"/>
<path d="M113.884 68.9556H91.1887C90.9399 68.9556 90.7444 68.7601 90.7444 68.5113V45.8164C90.7444 45.5676 90.9399 45.3721 91.1887 45.3721H113.884C114.132 45.3721 114.328 45.5676 114.328 45.8164V68.5113C114.328 68.7601 114.132 68.9556 113.884 68.9556ZM91.633 68.067H113.439V46.2607H91.633V68.067Z" fill="#1F0202"/>
<path d="M113.884 91.6329H91.1887C90.9399 91.6329 90.7444 91.4374 90.7444 91.1886V68.4936C90.7444 68.2448 90.9399 68.0493 91.1887 68.0493H113.884C114.132 68.0493 114.328 68.2448 114.328 68.4936V91.1886C114.328 91.4374 114.132 91.6329 113.884 91.6329ZM91.633 90.7443H113.439V68.9379H91.633V90.7443Z" fill="#1F0202"/>
<path d="M113.884 114.328H91.1887C90.9399 114.328 90.7444 114.132 90.7444 113.883V91.1884C90.7444 90.9396 90.9399 90.7441 91.1887 90.7441H113.884C114.132 90.7441 114.328 90.9396 114.328 91.1884V113.883C114.328 114.132 114.132 114.328 113.884 114.328ZM91.633 113.439H113.439V91.6327H91.633V113.439Z" fill="#1F0202"/>
<path d="M113.884 137.005H91.1887C90.9399 137.005 90.7444 136.809 90.7444 136.561V113.866C90.7444 113.617 90.9399 113.421 91.1887 113.421H113.884C114.132 113.421 114.328 113.617 114.328 113.866V136.561C114.328 136.809 114.132 137.005 113.884 137.005ZM91.633 136.116H113.439V114.31H91.633V136.116Z" fill="#1F0202"/>
<path d="M113.884 159.7H91.1887C90.9399 159.7 90.7444 159.504 90.7444 159.255V136.561C90.7444 136.312 90.9399 136.116 91.1887 136.116H113.884C114.132 136.116 114.328 136.312 114.328 136.561V159.255C114.328 159.504 114.132 159.7 113.884 159.7ZM91.633 158.811H113.439V137.005H91.633V158.811Z" fill="#1F0202"/>
<path d="M113.884 182.377H91.1887C90.9399 182.377 90.7444 182.182 90.7444 181.933V159.238C90.7444 158.989 90.9399 158.793 91.1887 158.793H113.884C114.132 158.793 114.328 158.989 114.328 159.238V181.933C114.328 182.182 114.132 182.377 113.884 182.377ZM91.633 181.488H113.439V159.682H91.633V181.488Z" fill="#1F0202"/>
<path d="M113.884 205.072H91.1887C90.9399 205.072 90.7444 204.877 90.7444 204.628V181.933C90.7444 181.684 90.9399 181.489 91.1887 181.489H113.884C114.132 181.489 114.328 181.684 114.328 181.933V204.628C114.328 204.877 114.132 205.072 113.884 205.072ZM91.633 204.184H113.439V182.377H91.633V204.184Z" fill="#1F0202"/>
<path d="M113.884 227.75H91.1887C90.9399 227.75 90.7444 227.554 90.7444 227.305V204.61C90.7444 204.362 90.9399 204.166 91.1887 204.166H113.884C114.132 204.166 114.328 204.362 114.328 204.61V227.305C114.328 227.554 114.132 227.75 113.884 227.75ZM91.633 226.861H113.439V205.055H91.633V226.861Z" fill="#1F0202"/>
<path d="M136.561 23.5836H113.866C113.617 23.5836 113.421 23.3881 113.421 23.1393V0.444302C113.421 0.195493 113.617 0 113.866 0C114.114 0 114.31 0.195493 114.31 0.444302V22.695H136.116V0.444302C136.116 0.195493 136.312 0 136.561 0C136.809 0 137.005 0.195493 137.005 0.444302V23.1393C137.005 23.3881 136.809 23.5836 136.561 23.5836Z" fill="#1F0202"/>
<path d="M136.561 46.2608H113.866C113.617 46.2608 113.421 46.0653 113.421 45.8165V23.1215C113.421 22.8727 113.617 22.6772 113.866 22.6772H136.561C136.809 22.6772 137.005 22.8727 137.005 23.1215V45.8165C137.005 46.0653 136.809 46.2608 136.561 46.2608ZM114.31 45.3722H136.116V23.5659H114.31V45.3722Z" fill="#1F0202"/>
<path d="M136.561 68.9556H113.866C113.617 68.9556 113.421 68.7601 113.421 68.5113V45.8164C113.421 45.5676 113.617 45.3721 113.866 45.3721H136.561C136.809 45.3721 137.005 45.5676 137.005 45.8164V68.5113C137.005 68.7601 136.809 68.9556 136.561 68.9556ZM114.31 68.067H136.116V46.2607H114.31V68.067Z" fill="#1F0202"/>
<path d="M136.561 91.6329H113.866C113.617 91.6329 113.421 91.4374 113.421 91.1886V68.4936C113.421 68.2448 113.617 68.0493 113.866 68.0493H136.561C136.809 68.0493 137.005 68.2448 137.005 68.4936V91.1886C137.005 91.4374 136.809 91.6329 136.561 91.6329ZM114.31 90.7443H136.116V68.9379H114.31V90.7443Z" fill="#1F0202"/>
<path d="M136.561 114.328H113.866C113.617 114.328 113.421 114.132 113.421 113.883V91.1884C113.421 90.9396 113.617 90.7441 113.866 90.7441H136.561C136.809 90.7441 137.005 90.9396 137.005 91.1884V113.883C137.005 114.132 136.809 114.328 136.561 114.328ZM114.31 113.439H136.116V91.6327H114.31V113.439Z" fill="#1F0202"/>
<path d="M136.561 137.005H113.866C113.617 137.005 113.421 136.809 113.421 136.561V113.866C113.421 113.617 113.617 113.421 113.866 113.421H136.561C136.809 113.421 137.005 113.617 137.005 113.866V136.561C137.005 136.809 136.809 137.005 136.561 137.005ZM114.31 136.116H136.116V114.31H114.31V136.116Z" fill="#1F0202"/>
<path d="M136.561 159.7H113.866C113.617 159.7 113.421 159.504 113.421 159.255V136.561C113.421 136.312 113.617 136.116 113.866 136.116H136.561C136.809 136.116 137.005 136.312 137.005 136.561V159.255C137.005 159.504 136.809 159.7 136.561 159.7ZM114.31 158.811H136.116V137.005H114.31V158.811Z" fill="#1F0202"/>
<path d="M136.561 182.377H113.866C113.617 182.377 113.421 182.182 113.421 181.933V159.238C113.421 158.989 113.617 158.793 113.866 158.793H136.561C136.809 158.793 137.005 158.989 137.005 159.238V181.933C137.005 182.182 136.809 182.377 136.561 182.377ZM114.31 181.488H136.116V159.682H114.31V181.488Z" fill="#1F0202"/>
<path d="M136.561 205.072H113.866C113.617 205.072 113.421 204.877 113.421 204.628V181.933C113.421 181.684 113.617 181.489 113.866 181.489H136.561C136.809 181.489 137.005 181.684 137.005 181.933V204.628C137.005 204.877 136.809 205.072 136.561 205.072ZM114.31 204.184H136.116V182.377H114.31V204.184Z" fill="#1F0202"/>
<path d="M136.561 227.75H113.866C113.617 227.75 113.421 227.554 113.421 227.305V204.61C113.421 204.362 113.617 204.166 113.866 204.166H136.561C136.809 204.166 137.005 204.362 137.005 204.61V227.305C137.005 227.554 136.809 227.75 136.561 227.75ZM114.31 226.861H136.116V205.055H114.31V226.861Z" fill="#1F0202"/>
<path d="M159.256 23.5836H136.561C136.312 23.5836 136.116 23.3881 136.116 23.1393V0.444302C136.116 0.195493 136.312 0 136.561 0C136.81 0 137.005 0.195493 137.005 0.444302V22.695H158.811V0.444302C158.811 0.195493 159.007 0 159.256 0C159.505 0 159.7 0.195493 159.7 0.444302V23.1393C159.7 23.3881 159.505 23.5836 159.256 23.5836Z" fill="#1F0202"/>
<path d="M159.256 46.2608H136.561C136.312 46.2608 136.116 46.0653 136.116 45.8165V23.1215C136.116 22.8727 136.312 22.6772 136.561 22.6772H159.256C159.505 22.6772 159.7 22.8727 159.7 23.1215V45.8165C159.7 46.0653 159.505 46.2608 159.256 46.2608ZM137.005 45.3722H158.811V23.5659H137.005V45.3722Z" fill="#1F0202"/>
<path d="M159.256 68.9556H136.561C136.312 68.9556 136.116 68.7601 136.116 68.5113V45.8164C136.116 45.5676 136.312 45.3721 136.561 45.3721H159.256C159.505 45.3721 159.7 45.5676 159.7 45.8164V68.5113C159.7 68.7601 159.505 68.9556 159.256 68.9556ZM137.005 68.067H158.811V46.2607H137.005V68.067Z" fill="#1F0202"/>
<path d="M159.256 91.6329H136.561C136.312 91.6329 136.116 91.4374 136.116 91.1886V68.4936C136.116 68.2448 136.312 68.0493 136.561 68.0493H159.256C159.505 68.0493 159.7 68.2448 159.7 68.4936V91.1886C159.7 91.4374 159.505 91.6329 159.256 91.6329ZM137.005 90.7443H158.811V68.9379H137.005V90.7443Z" fill="#1F0202"/>
<path d="M159.256 114.328H136.561C136.312 114.328 136.116 114.132 136.116 113.883V91.1884C136.116 90.9396 136.312 90.7441 136.561 90.7441H159.256C159.505 90.7441 159.7 90.9396 159.7 91.1884V113.883C159.7 114.132 159.505 114.328 159.256 114.328ZM137.005 113.439H158.811V91.6327H137.005V113.439Z" fill="#1F0202"/>
<path d="M159.256 137.005H136.561C136.312 137.005 136.116 136.809 136.116 136.561V113.866C136.116 113.617 136.312 113.421 136.561 113.421H159.256C159.505 113.421 159.7 113.617 159.7 113.866V136.561C159.7 136.809 159.505 137.005 159.256 137.005ZM137.005 136.116H158.811V114.31H137.005V136.116Z" fill="#1F0202"/>
<path d="M159.256 159.7H136.561C136.312 159.7 136.116 159.504 136.116 159.255V136.561C136.116 136.312 136.312 136.116 136.561 136.116H159.256C159.505 136.116 159.7 136.312 159.7 136.561V159.255C159.7 159.504 159.505 159.7 159.256 159.7ZM137.005 158.811H158.811V137.005H137.005V158.811Z" fill="#1F0202"/>
<path d="M159.256 182.377H136.561C136.312 182.377 136.116 182.182 136.116 181.933V159.238C136.116 158.989 136.312 158.793 136.561 158.793H159.256C159.505 158.793 159.7 158.989 159.7 159.238V181.933C159.7 182.182 159.505 182.377 159.256 182.377ZM137.005 181.488H158.811V159.682H137.005V181.488Z" fill="#1F0202"/>
<path d="M159.256 205.072H136.561C136.312 205.072 136.116 204.877 136.116 204.628V181.933C136.116 181.684 136.312 181.489 136.561 181.489H159.256C159.505 181.489 159.7 181.684 159.7 181.933V204.628C159.7 204.877 159.505 205.072 159.256 205.072ZM137.005 204.184H158.811V182.377H137.005V204.184Z" fill="#1F0202"/>
<path d="M159.256 227.75H136.561C136.312 227.75 136.116 227.554 136.116 227.305V204.61C136.116 204.362 136.312 204.166 136.561 204.166H159.256C159.505 204.166 159.7 204.362 159.7 204.61V227.305C159.7 227.554 159.505 227.75 159.256 227.75ZM137.005 226.861H158.811V205.055H137.005V226.861Z" fill="#1F0202"/>
<path d="M181.933 23.5836H159.238C158.989 23.5836 158.794 23.3881 158.794 23.1393V0.444302C158.794 0.195493 158.989 0 159.238 0C159.487 0 159.682 0.195493 159.682 0.444302V22.695H181.489V0.444302C181.489 0.195493 181.684 0 181.933 0C182.182 0 182.377 0.195493 182.377 0.444302V23.1393C182.377 23.3881 182.182 23.5836 181.933 23.5836Z" fill="#1F0202"/>
<path d="M181.933 46.2608H159.238C158.989 46.2608 158.794 46.0653 158.794 45.8165V23.1215C158.794 22.8727 158.989 22.6772 159.238 22.6772H181.933C182.182 22.6772 182.377 22.8727 182.377 23.1215V45.8165C182.377 46.0653 182.182 46.2608 181.933 46.2608ZM159.682 45.3722H181.489V23.5659H159.682V45.3722Z" fill="#1F0202"/>
<path d="M181.933 68.9556H159.238C158.989 68.9556 158.794 68.7601 158.794 68.5113V45.8164C158.794 45.5676 158.989 45.3721 159.238 45.3721H181.933C182.182 45.3721 182.377 45.5676 182.377 45.8164V68.5113C182.377 68.7601 182.182 68.9556 181.933 68.9556ZM159.682 68.067H181.489V46.2607H159.682V68.067Z" fill="#1F0202"/>
<path d="M181.933 91.6329H159.238C158.989 91.6329 158.794 91.4374 158.794 91.1886V68.4936C158.794 68.2448 158.989 68.0493 159.238 68.0493H181.933C182.182 68.0493 182.377 68.2448 182.377 68.4936V91.1886C182.377 91.4374 182.182 91.6329 181.933 91.6329ZM159.682 90.7443H181.489V68.9379H159.682V90.7443Z" fill="#1F0202"/>
<path d="M181.933 114.328H159.238C158.989 114.328 158.794 114.132 158.794 113.883V91.1884C158.794 90.9396 158.989 90.7441 159.238 90.7441H181.933C182.182 90.7441 182.377 90.9396 182.377 91.1884V113.883C182.377 114.132 182.182 114.328 181.933 114.328ZM159.682 113.439H181.489V91.6327H159.682V113.439Z" fill="#1F0202"/>
<path d="M181.933 137.005H159.238C158.989 137.005 158.794 136.809 158.794 136.561V113.866C158.794 113.617 158.989 113.421 159.238 113.421H181.933C182.182 113.421 182.377 113.617 182.377 113.866V136.561C182.377 136.809 182.182 137.005 181.933 137.005ZM159.682 136.116H181.489V114.31H159.682V136.116Z" fill="#1F0202"/>
<path d="M181.933 159.7H159.238C158.989 159.7 158.794 159.504 158.794 159.255V136.561C158.794 136.312 158.989 136.116 159.238 136.116H181.933C182.182 136.116 182.377 136.312 182.377 136.561V159.255C182.377 159.504 182.182 159.7 181.933 159.7ZM159.682 158.811H181.489V137.005H159.682V158.811Z" fill="#1F0202"/>
<path d="M181.933 182.377H159.238C158.989 182.377 158.794 182.182 158.794 181.933V159.238C158.794 158.989 158.989 158.793 159.238 158.793H181.933C182.182 158.793 182.377 158.989 182.377 159.238V181.933C182.377 182.182 182.182 182.377 181.933 182.377ZM159.682 181.488H181.489V159.682H159.682V181.488Z" fill="#1F0202"/>
<path d="M181.933 205.072H159.238C158.989 205.072 158.794 204.877 158.794 204.628V181.933C158.794 181.684 158.989 181.489 159.238 181.489H181.933C182.182 181.489 182.377 181.684 182.377 181.933V204.628C182.377 204.877 182.182 205.072 181.933 205.072ZM159.682 204.184H181.489V182.377H159.682V204.184Z" fill="#1F0202"/>
<path d="M181.933 227.75H159.238C158.989 227.75 158.794 227.554 158.794 227.305V204.61C158.794 204.362 158.989 204.166 159.238 204.166H181.933C182.182 204.166 182.377 204.362 182.377 204.61V227.305C182.377 227.554 182.182 227.75 181.933 227.75ZM159.682 226.861H181.489V205.055H159.682V226.861Z" fill="#1F0202"/>
<path d="M204.628 23.5836H181.933C181.684 23.5836 181.489 23.3881 181.489 23.1393V0.444302C181.489 0.195493 181.684 0 181.933 0C182.182 0 182.377 0.195493 182.377 0.444302V22.695H204.183V0.444302C204.183 0.195493 204.379 0 204.628 0C204.877 0 205.072 0.195493 205.072 0.444302V23.1393C205.072 23.3881 204.877 23.5836 204.628 23.5836Z" fill="#1F0202"/>
<path d="M204.628 46.2608H181.933C181.684 46.2608 181.489 46.0653 181.489 45.8165V23.1215C181.489 22.8727 181.684 22.6772 181.933 22.6772H204.628C204.877 22.6772 205.072 22.8727 205.072 23.1215V45.8165C205.072 46.0653 204.877 46.2608 204.628 46.2608ZM182.377 45.3722H204.183V23.5659H182.377V45.3722Z" fill="#1F0202"/>
<path d="M204.628 68.9556H181.933C181.684 68.9556 181.489 68.7601 181.489 68.5113V45.8164C181.489 45.5676 181.684 45.3721 181.933 45.3721H204.628C204.877 45.3721 205.072 45.5676 205.072 45.8164V68.5113C205.072 68.7601 204.877 68.9556 204.628 68.9556ZM182.377 68.067H204.183V46.2607H182.377V68.067Z" fill="#1F0202"/>
<path d="M204.628 91.6329H181.933C181.684 91.6329 181.489 91.4374 181.489 91.1886V68.4936C181.489 68.2448 181.684 68.0493 181.933 68.0493H204.628C204.877 68.0493 205.072 68.2448 205.072 68.4936V91.1886C205.072 91.4374 204.877 91.6329 204.628 91.6329ZM182.377 90.7443H204.183V68.9379H182.377V90.7443Z" fill="#1F0202"/>
<path d="M204.628 114.328H181.933C181.684 114.328 181.489 114.132 181.489 113.883V91.1884C181.489 90.9396 181.684 90.7441 181.933 90.7441H204.628C204.877 90.7441 205.072 90.9396 205.072 91.1884V113.883C205.072 114.132 204.877 114.328 204.628 114.328ZM182.377 113.439H204.183V91.6327H182.377V113.439Z" fill="#1F0202"/>
<path d="M204.628 137.005H181.933C181.684 137.005 181.489 136.809 181.489 136.561V113.866C181.489 113.617 181.684 113.421 181.933 113.421H204.628C204.877 113.421 205.072 113.617 205.072 113.866V136.561C205.072 136.809 204.877 137.005 204.628 137.005ZM182.377 136.116H204.183V114.31H182.377V136.116Z" fill="#1F0202"/>
<path d="M204.628 159.7H181.933C181.684 159.7 181.489 159.504 181.489 159.255V136.561C181.489 136.312 181.684 136.116 181.933 136.116H204.628C204.877 136.116 205.072 136.312 205.072 136.561V159.255C205.072 159.504 204.877 159.7 204.628 159.7ZM182.377 158.811H204.183V137.005H182.377V158.811Z" fill="#1F0202"/>
<path d="M204.628 182.377H181.933C181.684 182.377 181.489 182.182 181.489 181.933V159.238C181.489 158.989 181.684 158.793 181.933 158.793H204.628C204.877 158.793 205.072 158.989 205.072 159.238V181.933C205.072 182.182 204.877 182.377 204.628 182.377ZM182.377 181.488H204.183V159.682H182.377V181.488Z" fill="#1F0202"/>
<path d="M204.628 205.072H181.933C181.684 205.072 181.489 204.877 181.489 204.628V181.933C181.489 181.684 181.684 181.489 181.933 181.489H204.628C204.877 181.489 205.072 181.684 205.072 181.933V204.628C205.072 204.877 204.877 205.072 204.628 205.072ZM182.377 204.184H204.183V182.377H182.377V204.184Z" fill="#1F0202"/>
<path d="M204.628 227.75H181.933C181.684 227.75 181.489 227.554 181.489 227.305V204.61C181.489 204.362 181.684 204.166 181.933 204.166H204.628C204.877 204.166 205.072 204.362 205.072 204.61V227.305C205.072 227.554 204.877 227.75 204.628 227.75ZM182.377 226.861H204.183V205.055H182.377V226.861Z" fill="#1F0202"/>
<path d="M227.305 23.5836H204.61C204.361 23.5836 204.166 23.3881 204.166 23.1393V0.444302C204.166 0.195493 204.361 0 204.61 0C204.859 0 205.054 0.195493 205.054 0.444302V22.695H226.861V0.444302C226.861 0.195493 227.056 0 227.305 0C227.554 0 227.749 0.195493 227.749 0.444302V23.1393C227.749 23.3881 227.554 23.5836 227.305 23.5836Z" fill="#1F0202"/>
<path d="M227.305 46.2608H204.61C204.361 46.2608 204.166 46.0653 204.166 45.8165V23.1215C204.166 22.8727 204.361 22.6772 204.61 22.6772H227.305C227.554 22.6772 227.749 22.8727 227.749 23.1215V45.8165C227.749 46.0653 227.554 46.2608 227.305 46.2608ZM205.054 45.3722H226.861V23.5659H205.054V45.3722Z" fill="#1F0202"/>
<path d="M227.305 68.9556H204.61C204.361 68.9556 204.166 68.7601 204.166 68.5113V45.8164C204.166 45.5676 204.361 45.3721 204.61 45.3721H227.305C227.554 45.3721 227.749 45.5676 227.749 45.8164V68.5113C227.749 68.7601 227.554 68.9556 227.305 68.9556ZM205.054 68.067H226.861V46.2607H205.054V68.067Z" fill="#1F0202"/>
<path d="M227.305 91.6329H204.61C204.361 91.6329 204.166 91.4374 204.166 91.1886V68.4936C204.166 68.2448 204.361 68.0493 204.61 68.0493H227.305C227.554 68.0493 227.749 68.2448 227.749 68.4936V91.1886C227.749 91.4374 227.554 91.6329 227.305 91.6329ZM205.054 90.7443H226.861V68.9379H205.054V90.7443Z" fill="#1F0202"/>
<path d="M227.305 114.328H204.61C204.361 114.328 204.166 114.132 204.166 113.883V91.1884C204.166 90.9396 204.361 90.7441 204.61 90.7441H227.305C227.554 90.7441 227.749 90.9396 227.749 91.1884V113.883C227.749 114.132 227.554 114.328 227.305 114.328ZM205.054 113.439H226.861V91.6327H205.054V113.439Z" fill="#1F0202"/>
<path d="M227.305 137.005H204.61C204.361 137.005 204.166 136.809 204.166 136.561V113.866C204.166 113.617 204.361 113.421 204.61 113.421H227.305C227.554 113.421 227.749 113.617 227.749 113.866V136.561C227.749 136.809 227.554 137.005 227.305 137.005ZM205.054 136.116H226.861V114.31H205.054V136.116Z" fill="#1F0202"/>
<path d="M227.305 159.7H204.61C204.361 159.7 204.166 159.504 204.166 159.255V136.561C204.166 136.312 204.361 136.116 204.61 136.116H227.305C227.554 136.116 227.749 136.312 227.749 136.561V159.255C227.749 159.504 227.554 159.7 227.305 159.7ZM205.054 158.811H226.861V137.005H205.054V158.811Z" fill="#1F0202"/>
<path d="M227.305 182.377H204.61C204.361 182.377 204.166 182.182 204.166 181.933V159.238C204.166 158.989 204.361 158.793 204.61 158.793H227.305C227.554 158.793 227.749 158.989 227.749 159.238V181.933C227.749 182.182 227.554 182.377 227.305 182.377ZM205.054 181.488H226.861V159.682H205.054V181.488Z" fill="#1F0202"/>
<path d="M227.305 205.072H204.61C204.361 205.072 204.166 204.877 204.166 204.628V181.933C204.166 181.684 204.361 181.489 204.61 181.489H227.305C227.554 181.489 227.749 181.684 227.749 181.933V204.628C227.749 204.877 227.554 205.072 227.305 205.072ZM205.054 204.184H226.861V182.377H205.054V204.184Z" fill="#1F0202"/>
<path d="M227.305 227.75H204.61C204.361 227.75 204.166 227.554 204.166 227.305V204.61C204.166 204.362 204.361 204.166 204.61 204.166H227.305C227.554 204.166 227.749 204.362 227.749 204.61V227.305C227.749 227.554 227.554 227.75 227.305 227.75ZM205.054 226.861H226.861V205.055H205.054V226.861Z" fill="#1F0202"/>
<path d="M250 23.5836H227.305C227.056 23.5836 226.861 23.3881 226.861 23.1393V0.444302C226.861 0.195493 227.056 0 227.305 0C227.554 0 227.749 0.195493 227.749 0.444302V22.695H249.556V0.444302C249.556 0.195493 249.751 0 250 0C250.249 0 250.444 0.195493 250.444 0.444302V23.1393C250.444 23.3881 250.249 23.5836 250 23.5836Z" fill="#1F0202"/>
<path d="M250 46.2608H227.305C227.056 46.2608 226.861 46.0653 226.861 45.8165V23.1215C226.861 22.8727 227.056 22.6772 227.305 22.6772H250C250.249 22.6772 250.444 22.8727 250.444 23.1215V45.8165C250.444 46.0653 250.249 46.2608 250 46.2608ZM227.749 45.3722H249.556V23.5659H227.749V45.3722Z" fill="#1F0202"/>
<path d="M250 68.9556H227.305C227.056 68.9556 226.861 68.7601 226.861 68.5113V45.8164C226.861 45.5676 227.056 45.3721 227.305 45.3721H250C250.249 45.3721 250.444 45.5676 250.444 45.8164V68.5113C250.444 68.7601 250.249 68.9556 250 68.9556ZM227.749 68.067H249.556V46.2607H227.749V68.067Z" fill="#1F0202"/>
<path d="M250 91.6329H227.305C227.056 91.6329 226.861 91.4374 226.861 91.1886V68.4936C226.861 68.2448 227.056 68.0493 227.305 68.0493H250C250.249 68.0493 250.444 68.2448 250.444 68.4936V91.1886C250.444 91.4374 250.249 91.6329 250 91.6329ZM227.749 90.7443H249.556V68.9379H227.749V90.7443Z" fill="#1F0202"/>
<path d="M250 114.328H227.305C227.056 114.328 226.861 114.132 226.861 113.883V91.1884C226.861 90.9396 227.056 90.7441 227.305 90.7441H250C250.249 90.7441 250.444 90.9396 250.444 91.1884V113.883C250.444 114.132 250.249 114.328 250 114.328ZM227.749 113.439H249.556V91.6327H227.749V113.439Z" fill="#1F0202"/>
<path d="M250 137.005H227.305C227.056 137.005 226.861 136.809 226.861 136.561V113.866C226.861 113.617 227.056 113.421 227.305 113.421H250C250.249 113.421 250.444 113.617 250.444 113.866V136.561C250.444 136.809 250.249 137.005 250 137.005ZM227.749 136.116H249.556V114.31H227.749V136.116Z" fill="#1F0202"/>
<path d="M250 159.7H227.305C227.056 159.7 226.861 159.504 226.861 159.255V136.561C226.861 136.312 227.056 136.116 227.305 136.116H250C250.249 136.116 250.444 136.312 250.444 136.561V159.255C250.444 159.504 250.249 159.7 250 159.7ZM227.749 158.811H249.556V137.005H227.749V158.811Z" fill="#1F0202"/>
<path d="M250 182.377H227.305C227.056 182.377 226.861 182.182 226.861 181.933V159.238C226.861 158.989 227.056 158.793 227.305 158.793H250C250.249 158.793 250.444 158.989 250.444 159.238V181.933C250.444 182.182 250.249 182.377 250 182.377ZM227.749 181.488H249.556V159.682H227.749V181.488Z" fill="#1F0202"/>
<path d="M250 205.072H227.305C227.056 205.072 226.861 204.877 226.861 204.628V181.933C226.861 181.684 227.056 181.489 227.305 181.489H250C250.249 181.489 250.444 181.684 250.444 181.933V204.628C250.444 204.877 250.249 205.072 250 205.072ZM227.749 204.184H249.556V182.377H227.749V204.184Z" fill="#1F0202"/>
<path d="M250 227.75H227.305C227.056 227.75 226.861 227.554 226.861 227.305V204.61C226.861 204.362 227.056 204.166 227.305 204.166H250C250.249 204.166 250.444 204.362 250.444 204.61V227.305C250.444 227.554 250.249 227.75 250 227.75ZM227.749 226.861H249.556V205.055H227.749V226.861Z" fill="#1F0202"/>
<path d="M272.677 23.5836H250C249.751 23.5836 249.556 23.3881 249.556 23.1393V0.444302C249.556 0.195493 249.751 0 250 0C250.249 0 250.444 0.195493 250.444 0.444302V22.695H272.233V0.444302C272.233 0.195493 272.428 0 272.677 0C272.926 0 273.121 0.195493 273.121 0.444302V23.1393C273.121 23.3881 272.926 23.5836 272.677 23.5836Z" fill="#1F0202"/>
<path d="M272.677 46.2608H250C249.751 46.2608 249.556 46.0653 249.556 45.8165V23.1215C249.556 22.8727 249.751 22.6772 250 22.6772H272.677C272.926 22.6772 273.121 22.8727 273.121 23.1215V45.8165C273.121 46.0653 272.926 46.2608 272.677 46.2608ZM250.444 45.3722H272.233V23.5659H250.444V45.3722Z" fill="#1F0202"/>
<path d="M272.677 68.9556H250C249.751 68.9556 249.556 68.7601 249.556 68.5113V45.8164C249.556 45.5676 249.751 45.3721 250 45.3721H272.677C272.926 45.3721 273.121 45.5676 273.121 45.8164V68.5113C273.121 68.7601 272.926 68.9556 272.677 68.9556ZM250.444 68.067H272.233V46.2607H250.444V68.067Z" fill="#1F0202"/>
<path d="M272.677 91.6329H250C249.751 91.6329 249.556 91.4374 249.556 91.1886V68.4936C249.556 68.2448 249.751 68.0493 250 68.0493H272.677C272.926 68.0493 273.121 68.2448 273.121 68.4936V91.1886C273.121 91.4374 272.926 91.6329 272.677 91.6329ZM250.444 90.7443H272.233V68.9379H250.444V90.7443Z" fill="#1F0202"/>
<path d="M272.677 114.328H250C249.751 114.328 249.556 114.132 249.556 113.883V91.1884C249.556 90.9396 249.751 90.7441 250 90.7441H272.677C272.926 90.7441 273.121 90.9396 273.121 91.1884V113.883C273.121 114.132 272.926 114.328 272.677 114.328ZM250.444 113.439H272.233V91.6327H250.444V113.439Z" fill="#1F0202"/>
<path d="M272.677 137.005H250C249.751 137.005 249.556 136.809 249.556 136.561V113.866C249.556 113.617 249.751 113.421 250 113.421H272.677C272.926 113.421 273.121 113.617 273.121 113.866V136.561C273.121 136.809 272.926 137.005 272.677 137.005ZM250.444 136.116H272.233V114.31H250.444V136.116Z" fill="#1F0202"/>
<path d="M272.677 159.7H250C249.751 159.7 249.556 159.504 249.556 159.255V136.561C249.556 136.312 249.751 136.116 250 136.116H272.677C272.926 136.116 273.121 136.312 273.121 136.561V159.255C273.121 159.504 272.926 159.7 272.677 159.7ZM250.444 158.811H272.233V137.005H250.444V158.811Z" fill="#1F0202"/>
<path d="M272.677 182.377H250C249.751 182.377 249.556 182.182 249.556 181.933V159.238C249.556 158.989 249.751 158.793 250 158.793H272.677C272.926 158.793 273.121 158.989 273.121 159.238V181.933C273.121 182.182 272.926 182.377 272.677 182.377ZM250.444 181.488H272.233V159.682H250.444V181.488Z" fill="#1F0202"/>
<path d="M272.677 205.072H250C249.751 205.072 249.556 204.877 249.556 204.628V181.933C249.556 181.684 249.751 181.489 250 181.489H272.677C272.926 181.489 273.121 181.684 273.121 181.933V204.628C273.121 204.877 272.926 205.072 272.677 205.072ZM250.444 204.184H272.233V182.377H250.444V204.184Z" fill="#1F0202"/>
<path d="M272.677 227.75H250C249.751 227.75 249.556 227.554 249.556 227.305V204.61C249.556 204.362 249.751 204.166 250 204.166H272.677C272.926 204.166 273.121 204.362 273.121 204.61V227.305C273.121 227.554 272.926 227.75 272.677 227.75ZM250.444 226.861H272.233V205.055H250.444V226.861Z" fill="#1F0202"/>
<path d="M295.372 23.5836H272.677C272.428 23.5836 272.233 23.3881 272.233 23.1393V0.444302C272.233 0.195493 272.428 0 272.677 0C272.926 0 273.122 0.195493 273.122 0.444302V22.695H294.928V0.444302C294.928 0.195493 295.123 0 295.372 0C295.621 0 295.816 0.195493 295.816 0.444302V23.1393C295.816 23.3881 295.621 23.5836 295.372 23.5836Z" fill="#1F0202"/>
<path d="M295.372 46.2608H272.677C272.428 46.2608 272.233 46.0653 272.233 45.8165V23.1215C272.233 22.8727 272.428 22.6772 272.677 22.6772H295.372C295.621 22.6772 295.816 22.8727 295.816 23.1215V45.8165C295.816 46.0653 295.621 46.2608 295.372 46.2608ZM273.122 45.3722H294.928V23.5659H273.122V45.3722Z" fill="#1F0202"/>
<path d="M295.372 68.9556H272.677C272.428 68.9556 272.233 68.7601 272.233 68.5113V45.8164C272.233 45.5676 272.428 45.3721 272.677 45.3721H295.372C295.621 45.3721 295.816 45.5676 295.816 45.8164V68.5113C295.816 68.7601 295.621 68.9556 295.372 68.9556ZM273.122 68.067H294.928V46.2607H273.122V68.067Z" fill="#1F0202"/>
<path d="M295.372 91.6329H272.677C272.428 91.6329 272.233 91.4374 272.233 91.1886V68.4936C272.233 68.2448 272.428 68.0493 272.677 68.0493H295.372C295.621 68.0493 295.816 68.2448 295.816 68.4936V91.1886C295.816 91.4374 295.621 91.6329 295.372 91.6329ZM273.122 90.7443H294.928V68.9379H273.122V90.7443Z" fill="#1F0202"/>
<path d="M295.372 114.328H272.677C272.428 114.328 272.233 114.132 272.233 113.883V91.1884C272.233 90.9396 272.428 90.7441 272.677 90.7441H295.372C295.621 90.7441 295.816 90.9396 295.816 91.1884V113.883C295.816 114.132 295.621 114.328 295.372 114.328ZM273.122 113.439H294.928V91.6327H273.122V113.439Z" fill="#1F0202"/>
<path d="M295.372 137.005H272.677C272.428 137.005 272.233 136.809 272.233 136.561V113.866C272.233 113.617 272.428 113.421 272.677 113.421H295.372C295.621 113.421 295.816 113.617 295.816 113.866V136.561C295.816 136.809 295.621 137.005 295.372 137.005ZM273.122 136.116H294.928V114.31H273.122V136.116Z" fill="#1F0202"/>
<path d="M295.372 159.7H272.677C272.428 159.7 272.233 159.504 272.233 159.255V136.561C272.233 136.312 272.428 136.116 272.677 136.116H295.372C295.621 136.116 295.816 136.312 295.816 136.561V159.255C295.816 159.504 295.621 159.7 295.372 159.7ZM273.122 158.811H294.928V137.005H273.122V158.811Z" fill="#1F0202"/>
<path d="M295.372 182.377H272.677C272.428 182.377 272.233 182.182 272.233 181.933V159.238C272.233 158.989 272.428 158.793 272.677 158.793H295.372C295.621 158.793 295.816 158.989 295.816 159.238V181.933C295.816 182.182 295.621 182.377 295.372 182.377ZM273.122 181.488H294.928V159.682H273.122V181.488Z" fill="#1F0202"/>
<path d="M295.372 205.072H272.677C272.428 205.072 272.233 204.877 272.233 204.628V181.933C272.233 181.684 272.428 181.489 272.677 181.489H295.372C295.621 181.489 295.816 181.684 295.816 181.933V204.628C295.816 204.877 295.621 205.072 295.372 205.072ZM273.122 204.184H294.928V182.377H273.122V204.184Z" fill="#1F0202"/>
<path d="M295.372 227.75H272.677C272.428 227.75 272.233 227.554 272.233 227.305V204.61C272.233 204.362 272.428 204.166 272.677 204.166H295.372C295.621 204.166 295.816 204.362 295.816 204.61V227.305C295.816 227.554 295.621 227.75 295.372 227.75ZM273.122 226.861H294.928V205.055H273.122V226.861Z" fill="#1F0202"/>
<path d="M318.049 23.5836H295.354C295.106 23.5836 294.91 23.3881 294.91 23.1393V0.444302C294.91 0.195493 295.106 0 295.354 0C295.603 0 295.799 0.195493 295.799 0.444302V22.695H317.605V0.444302C317.605 0.195493 317.801 0 318.049 0C318.298 0 318.494 0.195493 318.494 0.444302V23.1393C318.494 23.3881 318.298 23.5836 318.049 23.5836Z" fill="#1F0202"/>
<path d="M318.049 46.2608H295.354C295.106 46.2608 294.91 46.0653 294.91 45.8165V23.1215C294.91 22.8727 295.106 22.6772 295.354 22.6772H318.049C318.298 22.6772 318.494 22.8727 318.494 23.1215V45.8165C318.494 46.0653 318.298 46.2608 318.049 46.2608ZM295.799 45.3722H317.605V23.5659H295.799V45.3722Z" fill="#1F0202"/>
<path d="M318.049 68.9556H295.354C295.106 68.9556 294.91 68.7601 294.91 68.5113V45.8164C294.91 45.5676 295.106 45.3721 295.354 45.3721H318.049C318.298 45.3721 318.494 45.5676 318.494 45.8164V68.5113C318.494 68.7601 318.298 68.9556 318.049 68.9556ZM295.799 68.067H317.605V46.2607H295.799V68.067Z" fill="#1F0202"/>
<path d="M318.049 91.6329H295.354C295.106 91.6329 294.91 91.4374 294.91 91.1886V68.4936C294.91 68.2448 295.106 68.0493 295.354 68.0493H318.049C318.298 68.0493 318.494 68.2448 318.494 68.4936V91.1886C318.494 91.4374 318.298 91.6329 318.049 91.6329ZM295.799 90.7443H317.605V68.9379H295.799V90.7443Z" fill="#1F0202"/>
<path d="M318.049 114.328H295.354C295.106 114.328 294.91 114.132 294.91 113.883V91.1884C294.91 90.9396 295.106 90.7441 295.354 90.7441H318.049C318.298 90.7441 318.494 90.9396 318.494 91.1884V113.883C318.494 114.132 318.298 114.328 318.049 114.328ZM295.799 113.439H317.605V91.6327H295.799V113.439Z" fill="#1F0202"/>
<path d="M318.049 137.005H295.354C295.106 137.005 294.91 136.809 294.91 136.561V113.866C294.91 113.617 295.106 113.421 295.354 113.421H318.049C318.298 113.421 318.494 113.617 318.494 113.866V136.561C318.494 136.809 318.298 137.005 318.049 137.005ZM295.799 136.116H317.605V114.31H295.799V136.116Z" fill="#1F0202"/>
<path d="M318.049 159.7H295.354C295.106 159.7 294.91 159.504 294.91 159.255V136.561C294.91 136.312 295.106 136.116 295.354 136.116H318.049C318.298 136.116 318.494 136.312 318.494 136.561V159.255C318.494 159.504 318.298 159.7 318.049 159.7ZM295.799 158.811H317.605V137.005H295.799V158.811Z" fill="#1F0202"/>
<path d="M318.049 182.377H295.354C295.106 182.377 294.91 182.182 294.91 181.933V159.238C294.91 158.989 295.106 158.793 295.354 158.793H318.049C318.298 158.793 318.494 158.989 318.494 159.238V181.933C318.494 182.182 318.298 182.377 318.049 182.377ZM295.799 181.488H317.605V159.682H295.799V181.488Z" fill="#1F0202"/>
<path d="M318.049 205.072H295.354C295.106 205.072 294.91 204.877 294.91 204.628V181.933C294.91 181.684 295.106 181.489 295.354 181.489H318.049C318.298 181.489 318.494 181.684 318.494 181.933V204.628C318.494 204.877 318.298 205.072 318.049 205.072ZM295.799 204.184H317.605V182.377H295.799V204.184Z" fill="#1F0202"/>
<path d="M318.049 227.75H295.354C295.106 227.75 294.91 227.554 294.91 227.305V204.61C294.91 204.362 295.106 204.166 295.354 204.166H318.049C318.298 204.166 318.494 204.362 318.494 204.61V227.305C318.494 227.554 318.298 227.75 318.049 227.75ZM295.799 226.861H317.605V205.055H295.799V226.861Z" fill="#1F0202"/>
<path d="M340.744 23.5836H318.067C317.818 23.5836 317.623 23.3881 317.623 23.1393V0.444302C317.623 0.195493 317.818 0 318.067 0C318.316 0 318.511 0.195493 318.511 0.444302V22.695H340.744C340.993 22.695 341.189 22.8905 341.189 23.1393C341.189 23.3881 340.993 23.5836 340.744 23.5836Z" fill="#1F0202"/>
<path d="M340.744 46.2608H318.067C317.818 46.2608 317.623 46.0653 317.623 45.8165V23.1215C317.623 22.8727 317.818 22.6772 318.067 22.6772H340.744C340.993 22.6772 341.189 22.8727 341.189 23.1215C341.189 23.3704 340.993 23.5659 340.744 23.5659H318.511V45.3722H340.744C340.993 45.3722 341.189 45.5677 341.189 45.8165C341.189 46.0653 340.993 46.2608 340.744 46.2608Z" fill="#1F0202"/>
<path d="M340.744 68.9556H318.067C317.818 68.9556 317.623 68.7601 317.623 68.5113V45.8164C317.623 45.5676 317.818 45.3721 318.067 45.3721H340.744C340.993 45.3721 341.189 45.5676 341.189 45.8164C341.189 46.0652 340.993 46.2607 340.744 46.2607H318.511V68.067H340.744C340.993 68.067 341.189 68.2625 341.189 68.5113C341.189 68.7601 340.993 68.9556 340.744 68.9556Z" fill="#1F0202"/>
<path d="M340.744 91.6329H318.067C317.818 91.6329 317.623 91.4374 317.623 91.1886V68.4936C317.623 68.2448 317.818 68.0493 318.067 68.0493H340.744C340.993 68.0493 341.189 68.2448 341.189 68.4936C341.189 68.7424 340.993 68.9379 340.744 68.9379H318.511V90.7443H340.744C340.993 90.7443 341.189 90.9398 341.189 91.1886C341.189 91.4374 340.993 91.6329 340.744 91.6329Z" fill="#1F0202"/>
<path d="M340.744 114.328H318.067C317.818 114.328 317.623 114.132 317.623 113.883V91.1884C317.623 90.9396 317.818 90.7441 318.067 90.7441H340.744C340.993 90.7441 341.189 90.9396 341.189 91.1884C341.189 91.4373 340.993 91.6327 340.744 91.6327H318.511V113.439H340.744C340.993 113.439 341.189 113.635 341.189 113.883C341.189 114.132 340.993 114.328 340.744 114.328Z" fill="#1F0202"/>
<path d="M340.744 137.005H318.067C317.818 137.005 317.623 136.809 317.623 136.561V113.866C317.623 113.617 317.818 113.421 318.067 113.421H340.744C340.993 113.421 341.189 113.617 341.189 113.866C341.189 114.114 340.993 114.31 340.744 114.31H318.511V136.116H340.744C340.993 136.116 341.189 136.312 341.189 136.561C341.189 136.809 340.993 137.005 340.744 137.005Z" fill="#1F0202"/>
<path d="M340.744 159.7H318.067C317.818 159.7 317.623 159.504 317.623 159.255V136.561C317.623 136.312 317.818 136.116 318.067 136.116H340.744C340.993 136.116 341.189 136.312 341.189 136.561C341.189 136.809 340.993 137.005 340.744 137.005H318.511V158.811H340.744C340.993 158.811 341.189 159.007 341.189 159.255C341.189 159.504 340.993 159.7 340.744 159.7Z" fill="#1F0202"/>
<path d="M340.744 182.377H318.067C317.818 182.377 317.623 182.182 317.623 181.933V159.238C317.623 158.989 317.818 158.793 318.067 158.793H340.744C340.993 158.793 341.189 158.989 341.189 159.238C341.189 159.487 340.993 159.682 340.744 159.682H318.511V181.488H340.744C340.993 181.488 341.189 181.684 341.189 181.933C341.189 182.182 340.993 182.377 340.744 182.377Z" fill="#1F0202"/>
<path d="M340.744 205.072H318.067C317.818 205.072 317.623 204.877 317.623 204.628V181.933C317.623 181.684 317.818 181.489 318.067 181.489H340.744C340.993 181.489 341.189 181.684 341.189 181.933C341.189 182.182 340.993 182.377 340.744 182.377H318.511V204.184H340.744C340.993 204.184 341.189 204.379 341.189 204.628C341.189 204.877 340.993 205.072 340.744 205.072Z" fill="#1F0202"/>
<path d="M340.744 227.75H318.067C317.818 227.75 317.623 227.554 317.623 227.305V204.61C317.623 204.362 317.818 204.166 318.067 204.166H340.744C340.993 204.166 341.189 204.362 341.189 204.61C341.189 204.859 340.993 205.055 340.744 205.055H318.511V226.861H340.744C340.993 226.861 341.189 227.056 341.189 227.305C341.189 227.554 340.993 227.75 340.744 227.75Z" fill="#1F0202"/>
<path d="M363.421 23.5836H340.727C340.478 23.5836 340.282 23.3881 340.282 23.1393V0.444302C340.282 0.195493 340.478 0 340.727 0C340.975 0 341.171 0.195493 341.171 0.444302V22.695H362.977V0.444302C362.977 0.195493 363.173 0 363.421 0C363.67 0 363.866 0.195493 363.866 0.444302V23.1393C363.866 23.3881 363.67 23.5836 363.421 23.5836Z" fill="#1F0202"/>
<path d="M363.421 46.2608H340.727C340.478 46.2608 340.282 46.0653 340.282 45.8165V23.1215C340.282 22.8727 340.478 22.6772 340.727 22.6772H363.421C363.67 22.6772 363.866 22.8727 363.866 23.1215V45.8165C363.866 46.0653 363.67 46.2608 363.421 46.2608ZM341.171 45.3722H362.977V23.5659H341.171V45.3722Z" fill="#1F0202"/>
<path d="M363.421 68.9556H340.727C340.478 68.9556 340.282 68.7601 340.282 68.5113V45.8164C340.282 45.5676 340.478 45.3721 340.727 45.3721H363.421C363.67 45.3721 363.866 45.5676 363.866 45.8164V68.5113C363.866 68.7601 363.67 68.9556 363.421 68.9556ZM341.171 68.067H362.977V46.2607H341.171V68.067Z" fill="#1F0202"/>
<path d="M363.421 91.6329H340.727C340.478 91.6329 340.282 91.4374 340.282 91.1886V68.4936C340.282 68.2448 340.478 68.0493 340.727 68.0493H363.421C363.67 68.0493 363.866 68.2448 363.866 68.4936V91.1886C363.866 91.4374 363.67 91.6329 363.421 91.6329ZM341.171 90.7443H362.977V68.9379H341.171V90.7443Z" fill="#1F0202"/>
<path d="M363.421 114.328H340.727C340.478 114.328 340.282 114.132 340.282 113.883V91.1884C340.282 90.9396 340.478 90.7441 340.727 90.7441H363.421C363.67 90.7441 363.866 90.9396 363.866 91.1884V113.883C363.866 114.132 363.67 114.328 363.421 114.328ZM341.171 113.439H362.977V91.6327H341.171V113.439Z" fill="#1F0202"/>
<path d="M363.421 137.005H340.727C340.478 137.005 340.282 136.809 340.282 136.561V113.866C340.282 113.617 340.478 113.421 340.727 113.421H363.421C363.67 113.421 363.866 113.617 363.866 113.866V136.561C363.866 136.809 363.67 137.005 363.421 137.005ZM341.171 136.116H362.977V114.31H341.171V136.116Z" fill="#1F0202"/>
<path d="M363.421 159.7H340.727C340.478 159.7 340.282 159.504 340.282 159.255V136.561C340.282 136.312 340.478 136.116 340.727 136.116H363.421C363.67 136.116 363.866 136.312 363.866 136.561V159.255C363.866 159.504 363.67 159.7 363.421 159.7ZM341.171 158.811H362.977V137.005H341.171V158.811Z" fill="#1F0202"/>
<path d="M363.421 182.377H340.727C340.478 182.377 340.282 182.182 340.282 181.933V159.238C340.282 158.989 340.478 158.793 340.727 158.793H363.421C363.67 158.793 363.866 158.989 363.866 159.238V181.933C363.866 182.182 363.67 182.377 363.421 182.377ZM341.171 181.488H362.977V159.682H341.171V181.488Z" fill="#1F0202"/>
<path d="M363.421 205.072H340.727C340.478 205.072 340.282 204.877 340.282 204.628V181.933C340.282 181.684 340.478 181.489 340.727 181.489H363.421C363.67 181.489 363.866 181.684 363.866 181.933V204.628C363.866 204.877 363.67 205.072 363.421 205.072ZM341.171 204.184H362.977V182.377H341.171V204.184Z" fill="#1F0202"/>
<path d="M363.421 227.75H340.727C340.478 227.75 340.282 227.554 340.282 227.305V204.61C340.282 204.362 340.478 204.166 340.727 204.166H363.421C363.67 204.166 363.866 204.362 363.866 204.61V227.305C363.866 227.554 363.67 227.75 363.421 227.75ZM341.171 226.861H362.977V205.055H341.171V226.861Z" fill="#1F0202"/>
<path d="M386.117 23.5836H363.422C363.173 23.5836 362.977 23.3881 362.977 23.1393V0.444302C362.977 0.195493 363.173 0 363.422 0C363.67 0 363.866 0.195493 363.866 0.444302V22.695H385.672V0.444302C385.672 0.195493 385.868 0 386.117 0C386.365 0 386.561 0.195493 386.561 0.444302V23.1393C386.561 23.3881 386.365 23.5836 386.117 23.5836Z" fill="#1F0202"/>
<path d="M386.117 46.2608H363.422C363.173 46.2608 362.977 46.0653 362.977 45.8165V23.1215C362.977 22.8727 363.173 22.6772 363.422 22.6772H386.117C386.365 22.6772 386.561 22.8727 386.561 23.1215V45.8165C386.561 46.0653 386.365 46.2608 386.117 46.2608ZM363.866 45.3722H385.672V23.5659H363.866V45.3722Z" fill="#1F0202"/>
<path d="M386.117 68.9556H363.422C363.173 68.9556 362.977 68.7601 362.977 68.5113V45.8164C362.977 45.5676 363.173 45.3721 363.422 45.3721H386.117C386.365 45.3721 386.561 45.5676 386.561 45.8164V68.5113C386.561 68.7601 386.365 68.9556 386.117 68.9556ZM363.866 68.067H385.672V46.2607H363.866V68.067Z" fill="#1F0202"/>
<path d="M386.117 91.6329H363.422C363.173 91.6329 362.977 91.4374 362.977 91.1886V68.4936C362.977 68.2448 363.173 68.0493 363.422 68.0493H386.117C386.365 68.0493 386.561 68.2448 386.561 68.4936V91.1886C386.561 91.4374 386.365 91.6329 386.117 91.6329ZM363.866 90.7443H385.672V68.9379H363.866V90.7443Z" fill="#1F0202"/>
<path d="M386.117 114.328H363.422C363.173 114.328 362.977 114.132 362.977 113.883V91.1884C362.977 90.9396 363.173 90.7441 363.422 90.7441H386.117C386.365 90.7441 386.561 90.9396 386.561 91.1884V113.883C386.561 114.132 386.365 114.328 386.117 114.328ZM363.866 113.439H385.672V91.6327H363.866V113.439Z" fill="#1F0202"/>
<path d="M386.117 137.005H363.422C363.173 137.005 362.977 136.809 362.977 136.561V113.866C362.977 113.617 363.173 113.421 363.422 113.421H386.117C386.365 113.421 386.561 113.617 386.561 113.866V136.561C386.561 136.809 386.365 137.005 386.117 137.005ZM363.866 136.116H385.672V114.31H363.866V136.116Z" fill="#1F0202"/>
<path d="M386.117 159.7H363.422C363.173 159.7 362.977 159.504 362.977 159.255V136.561C362.977 136.312 363.173 136.116 363.422 136.116H386.117C386.365 136.116 386.561 136.312 386.561 136.561V159.255C386.561 159.504 386.365 159.7 386.117 159.7ZM363.866 158.811H385.672V137.005H363.866V158.811Z" fill="#1F0202"/>
<path d="M386.117 182.377H363.422C363.173 182.377 362.977 182.182 362.977 181.933V159.238C362.977 158.989 363.173 158.793 363.422 158.793H386.117C386.365 158.793 386.561 158.989 386.561 159.238V181.933C386.561 182.182 386.365 182.377 386.117 182.377ZM363.866 181.488H385.672V159.682H363.866V181.488Z" fill="#1F0202"/>
<path d="M386.117 205.072H363.422C363.173 205.072 362.977 204.877 362.977 204.628V181.933C362.977 181.684 363.173 181.489 363.422 181.489H386.117C386.365 181.489 386.561 181.684 386.561 181.933V204.628C386.561 204.877 386.365 205.072 386.117 205.072ZM363.866 204.184H385.672V182.377H363.866V204.184Z" fill="#1F0202"/>
<path d="M386.117 227.75H363.422C363.173 227.75 362.977 227.554 362.977 227.305V204.61C362.977 204.362 363.173 204.166 363.422 204.166H386.117C386.365 204.166 386.561 204.362 386.561 204.61V227.305C386.561 227.554 386.365 227.75 386.117 227.75ZM363.866 226.861H385.672V205.055H363.866V226.861Z" fill="#1F0202"/>
<path d="M408.794 23.5836H386.116C385.868 23.5836 385.672 23.3881 385.672 23.1393V0.444302C385.672 0.195493 385.868 0 386.116 0C386.365 0 386.561 0.195493 386.561 0.444302V22.695H408.349V0.444302C408.349 0.195493 408.545 0 408.794 0C409.042 0 409.238 0.195493 409.238 0.444302V23.1393C409.238 23.3881 409.042 23.5836 408.794 23.5836Z" fill="#1F0202"/>
<path d="M408.794 46.2608H386.116C385.868 46.2608 385.672 46.0653 385.672 45.8165V23.1215C385.672 22.8727 385.868 22.6772 386.116 22.6772H408.794C409.042 22.6772 409.238 22.8727 409.238 23.1215V45.8165C409.238 46.0653 409.042 46.2608 408.794 46.2608ZM386.561 45.3722H408.349V23.5659H386.561V45.3722Z" fill="#1F0202"/>
<path d="M408.794 68.9556H386.116C385.868 68.9556 385.672 68.7601 385.672 68.5113V45.8164C385.672 45.5676 385.868 45.3721 386.116 45.3721H408.794C409.042 45.3721 409.238 45.5676 409.238 45.8164V68.5113C409.238 68.7601 409.042 68.9556 408.794 68.9556ZM386.561 68.067H408.349V46.2607H386.561V68.067Z" fill="#1F0202"/>
<path d="M408.794 91.6329H386.116C385.868 91.6329 385.672 91.4374 385.672 91.1886V68.4936C385.672 68.2448 385.868 68.0493 386.116 68.0493H408.794C409.042 68.0493 409.238 68.2448 409.238 68.4936V91.1886C409.238 91.4374 409.042 91.6329 408.794 91.6329ZM386.561 90.7443H408.349V68.9379H386.561V90.7443Z" fill="#1F0202"/>
<path d="M408.794 114.328H386.116C385.868 114.328 385.672 114.132 385.672 113.883V91.1884C385.672 90.9396 385.868 90.7441 386.116 90.7441H408.794C409.042 90.7441 409.238 90.9396 409.238 91.1884V113.883C409.238 114.132 409.042 114.328 408.794 114.328ZM386.561 113.439H408.349V91.6327H386.561V113.439Z" fill="#1F0202"/>
<path d="M408.794 137.005H386.116C385.868 137.005 385.672 136.809 385.672 136.561V113.866C385.672 113.617 385.868 113.421 386.116 113.421H408.794C409.042 113.421 409.238 113.617 409.238 113.866V136.561C409.238 136.809 409.042 137.005 408.794 137.005ZM386.561 136.116H408.349V114.31H386.561V136.116Z" fill="#1F0202"/>
<path d="M408.794 159.7H386.116C385.868 159.7 385.672 159.504 385.672 159.255V136.561C385.672 136.312 385.868 136.116 386.116 136.116H408.794C409.042 136.116 409.238 136.312 409.238 136.561V159.255C409.238 159.504 409.042 159.7 408.794 159.7ZM386.561 158.811H408.349V137.005H386.561V158.811Z" fill="#1F0202"/>
<path d="M408.794 182.377H386.116C385.868 182.377 385.672 182.182 385.672 181.933V159.238C385.672 158.989 385.868 158.793 386.116 158.793H408.794C409.042 158.793 409.238 158.989 409.238 159.238V181.933C409.238 182.182 409.042 182.377 408.794 182.377ZM386.561 181.488H408.349V159.682H386.561V181.488Z" fill="#1F0202"/>
<path d="M408.794 205.072H386.116C385.868 205.072 385.672 204.877 385.672 204.628V181.933C385.672 181.684 385.868 181.489 386.116 181.489H408.794C409.042 181.489 409.238 181.684 409.238 181.933V204.628C409.238 204.877 409.042 205.072 408.794 205.072ZM386.561 204.184H408.349V182.377H386.561V204.184Z" fill="#1F0202"/>
<path d="M408.794 227.75H386.116C385.868 227.75 385.672 227.554 385.672 227.305V204.61C385.672 204.362 385.868 204.166 386.116 204.166H408.794C409.042 204.166 409.238 204.362 409.238 204.61V227.305C409.238 227.554 409.042 227.75 408.794 227.75ZM386.561 226.861H408.349V205.055H386.561V226.861Z" fill="#1F0202"/>
<path d="M431.489 23.5836H408.794C408.545 23.5836 408.349 23.3881 408.349 23.1393V0.444302C408.349 0.195493 408.545 0 408.794 0C409.042 0 409.238 0.195493 409.238 0.444302V22.695H431.044V0.444302C431.044 0.195493 431.24 0 431.489 0C431.737 0 431.933 0.195493 431.933 0.444302V23.1393C431.933 23.3881 431.737 23.5836 431.489 23.5836Z" fill="#1F0202"/>
<path d="M431.489 46.2608H408.794C408.545 46.2608 408.349 46.0653 408.349 45.8165V23.1215C408.349 22.8727 408.545 22.6772 408.794 22.6772H431.489C431.737 22.6772 431.933 22.8727 431.933 23.1215V45.8165C431.933 46.0653 431.737 46.2608 431.489 46.2608ZM409.238 45.3722H431.044V23.5659H409.238V45.3722Z" fill="#1F0202"/>
<path d="M431.489 68.9556H408.794C408.545 68.9556 408.349 68.7601 408.349 68.5113V45.8164C408.349 45.5676 408.545 45.3721 408.794 45.3721H431.489C431.737 45.3721 431.933 45.5676 431.933 45.8164V68.5113C431.933 68.7601 431.737 68.9556 431.489 68.9556ZM409.238 68.067H431.044V46.2607H409.238V68.067Z" fill="#1F0202"/>
<path d="M431.489 91.6329H408.794C408.545 91.6329 408.349 91.4374 408.349 91.1886V68.4936C408.349 68.2448 408.545 68.0493 408.794 68.0493H431.489C431.737 68.0493 431.933 68.2448 431.933 68.4936V91.1886C431.933 91.4374 431.737 91.6329 431.489 91.6329ZM409.238 90.7443H431.044V68.9379H409.238V90.7443Z" fill="#1F0202"/>
<path d="M431.489 114.328H408.794C408.545 114.328 408.349 114.132 408.349 113.883V91.1884C408.349 90.9396 408.545 90.7441 408.794 90.7441H431.489C431.737 90.7441 431.933 90.9396 431.933 91.1884V113.883C431.933 114.132 431.737 114.328 431.489 114.328ZM409.238 113.439H431.044V91.6327H409.238V113.439Z" fill="#1F0202"/>
<path d="M431.489 137.005H408.794C408.545 137.005 408.349 136.809 408.349 136.561V113.866C408.349 113.617 408.545 113.421 408.794 113.421H431.489C431.737 113.421 431.933 113.617 431.933 113.866V136.561C431.933 136.809 431.737 137.005 431.489 137.005ZM409.238 136.116H431.044V114.31H409.238V136.116Z" fill="#1F0202"/>
<path d="M431.489 159.7H408.794C408.545 159.7 408.349 159.504 408.349 159.255V136.561C408.349 136.312 408.545 136.116 408.794 136.116H431.489C431.737 136.116 431.933 136.312 431.933 136.561V159.255C431.933 159.504 431.737 159.7 431.489 159.7ZM409.238 158.811H431.044V137.005H409.238V158.811Z" fill="#1F0202"/>
<path d="M431.489 182.377H408.794C408.545 182.377 408.349 182.182 408.349 181.933V159.238C408.349 158.989 408.545 158.793 408.794 158.793H431.489C431.737 158.793 431.933 158.989 431.933 159.238V181.933C431.933 182.182 431.737 182.377 431.489 182.377ZM409.238 181.488H431.044V159.682H409.238V181.488Z" fill="#1F0202"/>
<path d="M431.489 205.072H408.794C408.545 205.072 408.349 204.877 408.349 204.628V181.933C408.349 181.684 408.545 181.489 408.794 181.489H431.489C431.737 181.489 431.933 181.684 431.933 181.933V204.628C431.933 204.877 431.737 205.072 431.489 205.072ZM409.238 204.184H431.044V182.377H409.238V204.184Z" fill="#1F0202"/>
<path d="M431.489 227.75H408.794C408.545 227.75 408.349 227.554 408.349 227.305V204.61C408.349 204.362 408.545 204.166 408.794 204.166H431.489C431.737 204.166 431.933 204.362 431.933 204.61V227.305C431.933 227.554 431.737 227.75 431.489 227.75ZM409.238 226.861H431.044V205.055H409.238V226.861Z" fill="#1F0202"/>
<path d="M454.166 23.5836H431.488C431.24 23.5836 431.044 23.3881 431.044 23.1393V0.444302C431.044 0.195493 431.24 0 431.488 0C431.737 0 431.933 0.195493 431.933 0.444302V22.695H453.721V0.444302C453.721 0.195493 453.917 0 454.166 0C454.415 0 454.61 0.195493 454.61 0.444302V23.1393C454.61 23.3881 454.415 23.5836 454.166 23.5836Z" fill="#1F0202"/>
<path d="M454.166 46.2608H431.488C431.24 46.2608 431.044 46.0653 431.044 45.8165V23.1215C431.044 22.8727 431.24 22.6772 431.488 22.6772H454.166C454.415 22.6772 454.61 22.8727 454.61 23.1215V45.8165C454.61 46.0653 454.415 46.2608 454.166 46.2608ZM431.933 45.3722H453.721V23.5659H431.933V45.3722Z" fill="#1F0202"/>
<path d="M454.166 68.9556H431.488C431.24 68.9556 431.044 68.7601 431.044 68.5113V45.8164C431.044 45.5676 431.24 45.3721 431.488 45.3721H454.166C454.415 45.3721 454.61 45.5676 454.61 45.8164V68.5113C454.61 68.7601 454.415 68.9556 454.166 68.9556ZM431.933 68.067H453.721V46.2607H431.933V68.067Z" fill="#1F0202"/>
<path d="M454.166 91.6329H431.488C431.24 91.6329 431.044 91.4374 431.044 91.1886V68.4936C431.044 68.2448 431.24 68.0493 431.488 68.0493H454.166C454.415 68.0493 454.61 68.2448 454.61 68.4936V91.1886C454.61 91.4374 454.415 91.6329 454.166 91.6329ZM431.933 90.7443H453.721V68.9379H431.933V90.7443Z" fill="#1F0202"/>
<path d="M454.166 114.328H431.488C431.24 114.328 431.044 114.132 431.044 113.883V91.1884C431.044 90.9396 431.24 90.7441 431.488 90.7441H454.166C454.415 90.7441 454.61 90.9396 454.61 91.1884V113.883C454.61 114.132 454.415 114.328 454.166 114.328ZM431.933 113.439H453.721V91.6327H431.933V113.439Z" fill="#1F0202"/>
<path d="M454.166 137.005H431.488C431.24 137.005 431.044 136.809 431.044 136.561V113.866C431.044 113.617 431.24 113.421 431.488 113.421H454.166C454.415 113.421 454.61 113.617 454.61 113.866V136.561C454.61 136.809 454.415 137.005 454.166 137.005ZM431.933 136.116H453.721V114.31H431.933V136.116Z" fill="#1F0202"/>
<path d="M454.166 159.7H431.488C431.24 159.7 431.044 159.504 431.044 159.255V136.561C431.044 136.312 431.24 136.116 431.488 136.116H454.166C454.415 136.116 454.61 136.312 454.61 136.561V159.255C454.61 159.504 454.415 159.7 454.166 159.7ZM431.933 158.811H453.721V137.005H431.933V158.811Z" fill="#1F0202"/>
<path d="M454.166 182.377H431.488C431.24 182.377 431.044 182.182 431.044 181.933V159.238C431.044 158.989 431.24 158.793 431.488 158.793H454.166C454.415 158.793 454.61 158.989 454.61 159.238V181.933C454.61 182.182 454.415 182.377 454.166 182.377ZM431.933 181.488H453.721V159.682H431.933V181.488Z" fill="#1F0202"/>
<path d="M454.166 205.072H431.488C431.24 205.072 431.044 204.877 431.044 204.628V181.933C431.044 181.684 431.24 181.489 431.488 181.489H454.166C454.415 181.489 454.61 181.684 454.61 181.933V204.628C454.61 204.877 454.415 205.072 454.166 205.072ZM431.933 204.184H453.721V182.377H431.933V204.184Z" fill="#1F0202"/>
<path d="M454.166 227.75H431.488C431.24 227.75 431.044 227.554 431.044 227.305V204.61C431.044 204.362 431.24 204.166 431.488 204.166H454.166C454.415 204.166 454.61 204.362 454.61 204.61V227.305C454.61 227.554 454.415 227.75 454.166 227.75ZM431.933 226.861H453.721V205.055H431.933V226.861Z" fill="#1F0202"/>
<path d="M476.861 23.5836H454.166C453.917 23.5836 453.721 23.3881 453.721 23.1393V0.444302C453.721 0.195493 453.917 0 454.166 0C454.415 0 454.61 0.195493 454.61 0.444302V22.695H476.416V0.444302C476.416 0.195493 476.612 0 476.861 0C477.11 0 477.305 0.195493 477.305 0.444302V23.1393C477.305 23.3881 477.11 23.5836 476.861 23.5836Z" fill="#1F0202"/>
<path d="M476.861 46.2608H454.166C453.917 46.2608 453.721 46.0653 453.721 45.8165V23.1215C453.721 22.8727 453.917 22.6772 454.166 22.6772H476.861C477.11 22.6772 477.305 22.8727 477.305 23.1215V45.8165C477.305 46.0653 477.11 46.2608 476.861 46.2608ZM454.61 45.3722H476.416V23.5659H454.61V45.3722Z" fill="#1F0202"/>
<path d="M476.861 68.9556H454.166C453.917 68.9556 453.721 68.7601 453.721 68.5113V45.8164C453.721 45.5676 453.917 45.3721 454.166 45.3721H476.861C477.11 45.3721 477.305 45.5676 477.305 45.8164V68.5113C477.305 68.7601 477.11 68.9556 476.861 68.9556ZM454.61 68.067H476.416V46.2607H454.61V68.067Z" fill="#1F0202"/>
<path d="M476.861 91.6329H454.166C453.917 91.6329 453.721 91.4374 453.721 91.1886V68.4936C453.721 68.2448 453.917 68.0493 454.166 68.0493H476.861C477.11 68.0493 477.305 68.2448 477.305 68.4936V91.1886C477.305 91.4374 477.11 91.6329 476.861 91.6329ZM454.61 90.7443H476.416V68.9379H454.61V90.7443Z" fill="#1F0202"/>
<path d="M476.861 114.328H454.166C453.917 114.328 453.721 114.132 453.721 113.883V91.1884C453.721 90.9396 453.917 90.7441 454.166 90.7441H476.861C477.11 90.7441 477.305 90.9396 477.305 91.1884V113.883C477.305 114.132 477.11 114.328 476.861 114.328ZM454.61 113.439H476.416V91.6327H454.61V113.439Z" fill="#1F0202"/>
<path d="M476.861 137.005H454.166C453.917 137.005 453.721 136.809 453.721 136.561V113.866C453.721 113.617 453.917 113.421 454.166 113.421H476.861C477.11 113.421 477.305 113.617 477.305 113.866V136.561C477.305 136.809 477.11 137.005 476.861 137.005ZM454.61 136.116H476.416V114.31H454.61V136.116Z" fill="#1F0202"/>
<path d="M476.861 159.7H454.166C453.917 159.7 453.721 159.504 453.721 159.255V136.561C453.721 136.312 453.917 136.116 454.166 136.116H476.861C477.11 136.116 477.305 136.312 477.305 136.561V159.255C477.305 159.504 477.11 159.7 476.861 159.7ZM454.61 158.811H476.416V137.005H454.61V158.811Z" fill="#1F0202"/>
<path d="M476.861 182.377H454.166C453.917 182.377 453.721 182.182 453.721 181.933V159.238C453.721 158.989 453.917 158.793 454.166 158.793H476.861C477.11 158.793 477.305 158.989 477.305 159.238V181.933C477.305 182.182 477.11 182.377 476.861 182.377ZM454.61 181.488H476.416V159.682H454.61V181.488Z" fill="#1F0202"/>
<path d="M476.861 205.072H454.166C453.917 205.072 453.721 204.877 453.721 204.628V181.933C453.721 181.684 453.917 181.489 454.166 181.489H476.861C477.11 181.489 477.305 181.684 477.305 181.933V204.628C477.305 204.877 477.11 205.072 476.861 205.072ZM454.61 204.184H476.416V182.377H454.61V204.184Z" fill="#1F0202"/>
<path d="M476.861 227.75H454.166C453.917 227.75 453.721 227.554 453.721 227.305V204.61C453.721 204.362 453.917 204.166 454.166 204.166H476.861C477.11 204.166 477.305 204.362 477.305 204.61V227.305C477.305 227.554 477.11 227.75 476.861 227.75ZM454.61 226.861H476.416V205.055H454.61V226.861Z" fill="#1F0202"/>
<path d="M499.556 23.5836H476.861C476.612 23.5836 476.417 23.3881 476.417 23.1393V0.444302C476.417 0.195493 476.612 0 476.861 0C477.11 0 477.305 0.195493 477.305 0.444302V22.695H499.111V0.444302C499.111 0.195493 499.307 0 499.556 0C499.805 0 500 0.195493 500 0.444302V23.1393C500 23.3881 499.805 23.5836 499.556 23.5836Z" fill="#1F0202"/>
<path d="M499.556 46.2608H476.861C476.612 46.2608 476.417 46.0653 476.417 45.8165V23.1215C476.417 22.8727 476.612 22.6772 476.861 22.6772H499.556C499.805 22.6772 500 22.8727 500 23.1215V45.8165C500 46.0653 499.805 46.2608 499.556 46.2608ZM477.305 45.3722H499.111V23.5659H477.305V45.3722Z" fill="#1F0202"/>
<path d="M499.556 68.9556H476.861C476.612 68.9556 476.417 68.7601 476.417 68.5113V45.8164C476.417 45.5676 476.612 45.3721 476.861 45.3721H499.556C499.805 45.3721 500 45.5676 500 45.8164V68.5113C500 68.7601 499.805 68.9556 499.556 68.9556ZM477.305 68.067H499.111V46.2607H477.305V68.067Z" fill="#1F0202"/>
<path d="M499.556 91.6329H476.861C476.612 91.6329 476.417 91.4374 476.417 91.1886V68.4936C476.417 68.2448 476.612 68.0493 476.861 68.0493H499.556C499.805 68.0493 500 68.2448 500 68.4936V91.1886C500 91.4374 499.805 91.6329 499.556 91.6329ZM477.305 90.7443H499.111V68.9379H477.305V90.7443Z" fill="#1F0202"/>
<path d="M499.556 114.328H476.861C476.612 114.328 476.417 114.132 476.417 113.883V91.1884C476.417 90.9396 476.612 90.7441 476.861 90.7441H499.556C499.805 90.7441 500 90.9396 500 91.1884V113.883C500 114.132 499.805 114.328 499.556 114.328ZM477.305 113.439H499.111V91.6327H477.305V113.439Z" fill="#1F0202"/>
<path d="M499.556 137.005H476.861C476.612 137.005 476.417 136.809 476.417 136.561V113.866C476.417 113.617 476.612 113.421 476.861 113.421H499.556C499.805 113.421 500 113.617 500 113.866V136.561C500 136.809 499.805 137.005 499.556 137.005ZM477.305 136.116H499.111V114.31H477.305V136.116Z" fill="#1F0202"/>
<path d="M499.556 159.7H476.861C476.612 159.7 476.417 159.504 476.417 159.255V136.561C476.417 136.312 476.612 136.116 476.861 136.116H499.556C499.805 136.116 500 136.312 500 136.561V159.255C500 159.504 499.805 159.7 499.556 159.7ZM477.305 158.811H499.111V137.005H477.305V158.811Z" fill="#1F0202"/>
<path d="M499.556 182.377H476.861C476.612 182.377 476.417 182.182 476.417 181.933V159.238C476.417 158.989 476.612 158.793 476.861 158.793H499.556C499.805 158.793 500 158.989 500 159.238V181.933C500 182.182 499.805 182.377 499.556 182.377ZM477.305 181.488H499.111V159.682H477.305V181.488Z" fill="#1F0202"/>
<path d="M499.556 205.072H476.861C476.612 205.072 476.417 204.877 476.417 204.628V181.933C476.417 181.684 476.612 181.489 476.861 181.489H499.556C499.805 181.489 500 181.684 500 181.933V204.628C500 204.877 499.805 205.072 499.556 205.072ZM477.305 204.184H499.111V182.377H477.305V204.184Z" fill="#1F0202"/>
<path d="M499.556 227.75H476.861C476.612 227.75 476.417 227.554 476.417 227.305V204.61C476.417 204.362 476.612 204.166 476.861 204.166H499.556C499.805 204.166 500 204.362 500 204.61V227.305C500 227.554 499.805 227.75 499.556 227.75ZM477.305 226.861H499.111V205.055H477.305V226.861Z" fill="#1F0202"/>
</g>
<defs>
<clipPath id="clip0_75_2701">
<rect width="500" height="227.749" fill="white"/>
</clipPath>
</defs>
</svg>
