<svg width="187" height="637" viewBox="0 0 187 637" fill="none" xmlns="http://www.w3.org/2000/svg">
<g clip-path="url(#clip0_19_15594)">
<path d="M180.49 267.07V278.65" stroke="#1F0202" stroke-width="2" stroke-linecap="square" stroke-linejoin="round"/>
<path d="M186.28 272.86H174.7" stroke="#1F0202" stroke-width="2" stroke-linecap="square" stroke-linejoin="round"/>
<path d="M155.47 267.07V278.65" stroke="#1F0202" stroke-width="2" stroke-linecap="square" stroke-linejoin="round"/>
<path d="M161.26 272.86H149.68" stroke="#1F0202" stroke-width="2" stroke-linecap="square" stroke-linejoin="round"/>
<path d="M130.45 267.07V278.65" stroke="#1F0202" stroke-width="2" stroke-linecap="square" stroke-linejoin="round"/>
<path d="M136.24 272.86H124.66" stroke="#1F0202" stroke-width="2" stroke-linecap="square" stroke-linejoin="round"/>
<path d="M105.43 267.07V278.65" stroke="#1F0202" stroke-width="2" stroke-linecap="square" stroke-linejoin="round"/>
<path d="M111.22 272.86H99.6401" stroke="#1F0202" stroke-width="2" stroke-linecap="square" stroke-linejoin="round"/>
<path d="M180.49 240.37V251.95" stroke="#1F0202" stroke-width="2" stroke-linecap="square" stroke-linejoin="round"/>
<path d="M186.28 246.16H174.7" stroke="#1F0202" stroke-width="2" stroke-linecap="square" stroke-linejoin="round"/>
<path d="M155.47 240.37V251.95" stroke="#1F0202" stroke-width="2" stroke-linecap="square" stroke-linejoin="round"/>
<path d="M161.26 246.16H149.68" stroke="#1F0202" stroke-width="2" stroke-linecap="square" stroke-linejoin="round"/>
<path d="M130.45 240.37V251.95" stroke="#1F0202" stroke-width="2" stroke-linecap="square" stroke-linejoin="round"/>
<path d="M136.24 246.16H124.66" stroke="#1F0202" stroke-width="2" stroke-linecap="square" stroke-linejoin="round"/>
<path d="M105.43 240.37V251.95" stroke="#1F0202" stroke-width="2" stroke-linecap="square" stroke-linejoin="round"/>
<path d="M111.22 246.16H99.6401" stroke="#1F0202" stroke-width="2" stroke-linecap="square" stroke-linejoin="round"/>
<path d="M180.49 213.67V225.25" stroke="#1F0202" stroke-width="2" stroke-linecap="square" stroke-linejoin="round"/>
<path d="M186.28 219.46H174.7" stroke="#1F0202" stroke-width="2" stroke-linecap="square" stroke-linejoin="round"/>
<path d="M155.47 213.67V225.25" stroke="#1F0202" stroke-width="2" stroke-linecap="square" stroke-linejoin="round"/>
<path d="M161.26 219.46H149.68" stroke="#1F0202" stroke-width="2" stroke-linecap="square" stroke-linejoin="round"/>
<path d="M130.45 213.67V225.25" stroke="#1F0202" stroke-width="2" stroke-linecap="square" stroke-linejoin="round"/>
<path d="M136.24 219.46H124.66" stroke="#1F0202" stroke-width="2" stroke-linecap="square" stroke-linejoin="round"/>
<path d="M105.43 213.67V225.25" stroke="#1F0202" stroke-width="2" stroke-linecap="square" stroke-linejoin="round"/>
<path d="M111.22 219.46H99.6401" stroke="#1F0202" stroke-width="2" stroke-linecap="square" stroke-linejoin="round"/>
<path d="M180.49 293.77V305.34" stroke="#1F0202" stroke-width="2" stroke-linecap="square" stroke-linejoin="round"/>
<path d="M186.28 299.56H174.7" stroke="#1F0202" stroke-width="2" stroke-linecap="square" stroke-linejoin="round"/>
<path d="M155.47 293.77V305.34" stroke="#1F0202" stroke-width="2" stroke-linecap="square" stroke-linejoin="round"/>
<path d="M161.26 299.56H149.68" stroke="#1F0202" stroke-width="2" stroke-linecap="square" stroke-linejoin="round"/>
<path d="M130.45 293.77V305.34" stroke="#1F0202" stroke-width="2" stroke-linecap="square" stroke-linejoin="round"/>
<path d="M136.24 299.56H124.66" stroke="#1F0202" stroke-width="2" stroke-linecap="square" stroke-linejoin="round"/>
<path d="M105.43 293.77V305.34" stroke="#1F0202" stroke-width="2" stroke-linecap="square" stroke-linejoin="round"/>
<path d="M111.22 299.56H99.6401" stroke="#1F0202" stroke-width="2" stroke-linecap="square" stroke-linejoin="round"/>
<path d="M180.49 160.4V171.98" stroke="#1F0202" stroke-width="2" stroke-linecap="square" stroke-linejoin="round"/>
<path d="M186.28 166.19H174.7" stroke="#1F0202" stroke-width="2" stroke-linecap="square" stroke-linejoin="round"/>
<path d="M155.47 160.4V171.98" stroke="#1F0202" stroke-width="2" stroke-linecap="square" stroke-linejoin="round"/>
<path d="M161.26 166.19H149.68" stroke="#1F0202" stroke-width="2" stroke-linecap="square" stroke-linejoin="round"/>
<path d="M130.45 160.4V171.98" stroke="#1F0202" stroke-width="2" stroke-linecap="square" stroke-linejoin="round"/>
<path d="M136.24 166.19H124.66" stroke="#1F0202" stroke-width="2" stroke-linecap="square" stroke-linejoin="round"/>
<path d="M105.43 160.4V171.98" stroke="#1F0202" stroke-width="2" stroke-linecap="square" stroke-linejoin="round"/>
<path d="M111.22 166.19H99.6401" stroke="#1F0202" stroke-width="2" stroke-linecap="square" stroke-linejoin="round"/>
<path d="M180.49 133.7V145.28" stroke="#1F0202" stroke-width="2" stroke-linecap="square" stroke-linejoin="round"/>
<path d="M186.28 139.49H174.7" stroke="#1F0202" stroke-width="2" stroke-linecap="square" stroke-linejoin="round"/>
<path d="M155.47 133.7V145.28" stroke="#1F0202" stroke-width="2" stroke-linecap="square" stroke-linejoin="round"/>
<path d="M161.26 139.49H149.68" stroke="#1F0202" stroke-width="2" stroke-linecap="square" stroke-linejoin="round"/>
<path d="M130.45 133.7V145.28" stroke="#1F0202" stroke-width="2" stroke-linecap="square" stroke-linejoin="round"/>
<path d="M136.24 139.49H124.66" stroke="#1F0202" stroke-width="2" stroke-linecap="square" stroke-linejoin="round"/>
<path d="M105.43 133.7V145.28" stroke="#1F0202" stroke-width="2" stroke-linecap="square" stroke-linejoin="round"/>
<path d="M111.22 139.49H99.6401" stroke="#1F0202" stroke-width="2" stroke-linecap="square" stroke-linejoin="round"/>
<path d="M180.49 107V118.58" stroke="#1F0202" stroke-width="2" stroke-linecap="square" stroke-linejoin="round"/>
<path d="M186.28 112.79H174.7" stroke="#1F0202" stroke-width="2" stroke-linecap="square" stroke-linejoin="round"/>
<path d="M155.47 107V118.58" stroke="#1F0202" stroke-width="2" stroke-linecap="square" stroke-linejoin="round"/>
<path d="M161.26 112.79H149.68" stroke="#1F0202" stroke-width="2" stroke-linecap="square" stroke-linejoin="round"/>
<path d="M130.45 107V118.58" stroke="#1F0202" stroke-width="2" stroke-linecap="square" stroke-linejoin="round"/>
<path d="M136.24 112.79H124.66" stroke="#1F0202" stroke-width="2" stroke-linecap="square" stroke-linejoin="round"/>
<path d="M105.43 107V118.58" stroke="#1F0202" stroke-width="2" stroke-linecap="square" stroke-linejoin="round"/>
<path d="M111.22 112.79H99.6401" stroke="#1F0202" stroke-width="2" stroke-linecap="square" stroke-linejoin="round"/>
<path d="M180.49 187.1V198.67" stroke="#1F0202" stroke-width="2" stroke-linecap="square" stroke-linejoin="round"/>
<path d="M186.28 192.89H174.7" stroke="#1F0202" stroke-width="2" stroke-linecap="square" stroke-linejoin="round"/>
<path d="M155.47 187.1V198.67" stroke="#1F0202" stroke-width="2" stroke-linecap="square" stroke-linejoin="round"/>
<path d="M161.26 192.89H149.68" stroke="#1F0202" stroke-width="2" stroke-linecap="square" stroke-linejoin="round"/>
<path d="M130.45 187.1V198.67" stroke="#1F0202" stroke-width="2" stroke-linecap="square" stroke-linejoin="round"/>
<path d="M136.24 192.89H124.66" stroke="#1F0202" stroke-width="2" stroke-linecap="square" stroke-linejoin="round"/>
<path d="M105.43 187.1V198.67" stroke="#1F0202" stroke-width="2" stroke-linecap="square" stroke-linejoin="round"/>
<path d="M111.22 192.89H99.6401" stroke="#1F0202" stroke-width="2" stroke-linecap="square" stroke-linejoin="round"/>
<path d="M180.49 53.3999V64.9799" stroke="#1F0202" stroke-width="2" stroke-linecap="square" stroke-linejoin="round"/>
<path d="M186.28 59.1899H174.7" stroke="#1F0202" stroke-width="2" stroke-linecap="square" stroke-linejoin="round"/>
<path d="M155.47 53.3999V64.9799" stroke="#1F0202" stroke-width="2" stroke-linecap="square" stroke-linejoin="round"/>
<path d="M161.26 59.1899H149.68" stroke="#1F0202" stroke-width="2" stroke-linecap="square" stroke-linejoin="round"/>
<path d="M130.45 53.3999V64.9799" stroke="#1F0202" stroke-width="2" stroke-linecap="square" stroke-linejoin="round"/>
<path d="M136.24 59.1899H124.66" stroke="#1F0202" stroke-width="2" stroke-linecap="square" stroke-linejoin="round"/>
<path d="M105.43 53.3999V64.9799" stroke="#1F0202" stroke-width="2" stroke-linecap="square" stroke-linejoin="round"/>
<path d="M111.22 59.1899H99.6401" stroke="#1F0202" stroke-width="2" stroke-linecap="square" stroke-linejoin="round"/>
<path d="M180.49 26.7V38.2799" stroke="#1F0202" stroke-width="2" stroke-linecap="square" stroke-linejoin="round"/>
<path d="M186.28 32.49H174.7" stroke="#1F0202" stroke-width="2" stroke-linecap="square" stroke-linejoin="round"/>
<path d="M155.47 26.7V38.2799" stroke="#1F0202" stroke-width="2" stroke-linecap="square" stroke-linejoin="round"/>
<path d="M161.26 32.49H149.68" stroke="#1F0202" stroke-width="2" stroke-linecap="square" stroke-linejoin="round"/>
<path d="M130.45 26.7V38.2799" stroke="#1F0202" stroke-width="2" stroke-linecap="square" stroke-linejoin="round"/>
<path d="M136.24 32.49H124.66" stroke="#1F0202" stroke-width="2" stroke-linecap="square" stroke-linejoin="round"/>
<path d="M105.43 26.7V38.2799" stroke="#1F0202" stroke-width="2" stroke-linecap="square" stroke-linejoin="round"/>
<path d="M111.22 32.49H99.6401" stroke="#1F0202" stroke-width="2" stroke-linecap="square" stroke-linejoin="round"/>
<path d="M180.49 0V11.58" stroke="#1F0202" stroke-width="2" stroke-linecap="square" stroke-linejoin="round"/>
<path d="M186.28 5.79004H174.7" stroke="#1F0202" stroke-width="2" stroke-linecap="square" stroke-linejoin="round"/>
<path d="M155.47 0V11.58" stroke="#1F0202" stroke-width="2" stroke-linecap="square" stroke-linejoin="round"/>
<path d="M161.26 5.79004H149.68" stroke="#1F0202" stroke-width="2" stroke-linecap="square" stroke-linejoin="round"/>
<path d="M130.45 0V11.58" stroke="#1F0202" stroke-width="2" stroke-linecap="square" stroke-linejoin="round"/>
<path d="M136.24 5.79004H124.66" stroke="#1F0202" stroke-width="2" stroke-linecap="square" stroke-linejoin="round"/>
<path d="M105.43 0V11.58" stroke="#1F0202" stroke-width="2" stroke-linecap="square" stroke-linejoin="round"/>
<path d="M111.22 5.79004H99.6401" stroke="#1F0202" stroke-width="2" stroke-linecap="square" stroke-linejoin="round"/>
<path d="M180.49 80.0999V91.6699" stroke="#1F0202" stroke-width="2" stroke-linecap="square" stroke-linejoin="round"/>
<path d="M186.28 85.8899H174.7" stroke="#1F0202" stroke-width="2" stroke-linecap="square" stroke-linejoin="round"/>
<path d="M155.47 80.0999V91.6699" stroke="#1F0202" stroke-width="2" stroke-linecap="square" stroke-linejoin="round"/>
<path d="M161.26 85.8899H149.68" stroke="#1F0202" stroke-width="2" stroke-linecap="square" stroke-linejoin="round"/>
<path d="M130.45 80.0999V91.6699" stroke="#1F0202" stroke-width="2" stroke-linecap="square" stroke-linejoin="round"/>
<path d="M136.24 85.8899H124.66" stroke="#1F0202" stroke-width="2" stroke-linecap="square" stroke-linejoin="round"/>
<path d="M105.43 80.0999V91.6699" stroke="#1F0202" stroke-width="2" stroke-linecap="square" stroke-linejoin="round"/>
<path d="M111.22 85.8899H99.6401" stroke="#1F0202" stroke-width="2" stroke-linecap="square" stroke-linejoin="round"/>
<path d="M80.8501 267.07V278.65" stroke="#1F0202" stroke-width="2" stroke-linecap="square" stroke-linejoin="round"/>
<path d="M86.6401 272.86H75.0601" stroke="#1F0202" stroke-width="2" stroke-linecap="square" stroke-linejoin="round"/>
<path d="M55.8301 267.07V278.65" stroke="#1F0202" stroke-width="2" stroke-linecap="square" stroke-linejoin="round"/>
<path d="M61.62 272.86H50.04" stroke="#1F0202" stroke-width="2" stroke-linecap="square" stroke-linejoin="round"/>
<path d="M30.8101 267.07V278.65" stroke="#1F0202" stroke-width="2" stroke-linecap="square" stroke-linejoin="round"/>
<path d="M36.6 272.86H25.02" stroke="#1F0202" stroke-width="2" stroke-linecap="square" stroke-linejoin="round"/>
<path d="M5.79004 267.07V278.65" stroke="#1F0202" stroke-width="2" stroke-linecap="square" stroke-linejoin="round"/>
<path d="M11.58 272.86H0" stroke="#1F0202" stroke-width="2" stroke-linecap="square" stroke-linejoin="round"/>
<path d="M80.8501 240.37V251.95" stroke="#1F0202" stroke-width="2" stroke-linecap="square" stroke-linejoin="round"/>
<path d="M86.6401 246.16H75.0601" stroke="#1F0202" stroke-width="2" stroke-linecap="square" stroke-linejoin="round"/>
<path d="M55.8301 240.37V251.95" stroke="#1F0202" stroke-width="2" stroke-linecap="square" stroke-linejoin="round"/>
<path d="M61.62 246.16H50.04" stroke="#1F0202" stroke-width="2" stroke-linecap="square" stroke-linejoin="round"/>
<path d="M30.8101 240.37V251.95" stroke="#1F0202" stroke-width="2" stroke-linecap="square" stroke-linejoin="round"/>
<path d="M36.6 246.16H25.02" stroke="#1F0202" stroke-width="2" stroke-linecap="square" stroke-linejoin="round"/>
<path d="M5.79004 240.37V251.95" stroke="#1F0202" stroke-width="2" stroke-linecap="square" stroke-linejoin="round"/>
<path d="M11.58 246.16H0" stroke="#1F0202" stroke-width="2" stroke-linecap="square" stroke-linejoin="round"/>
<path d="M80.8501 213.67V225.25" stroke="#1F0202" stroke-width="2" stroke-linecap="square" stroke-linejoin="round"/>
<path d="M86.6401 219.46H75.0601" stroke="#1F0202" stroke-width="2" stroke-linecap="square" stroke-linejoin="round"/>
<path d="M55.8301 213.67V225.25" stroke="#1F0202" stroke-width="2" stroke-linecap="square" stroke-linejoin="round"/>
<path d="M61.62 219.46H50.04" stroke="#1F0202" stroke-width="2" stroke-linecap="square" stroke-linejoin="round"/>
<path d="M30.8101 213.67V225.25" stroke="#1F0202" stroke-width="2" stroke-linecap="square" stroke-linejoin="round"/>
<path d="M36.6 219.46H25.02" stroke="#1F0202" stroke-width="2" stroke-linecap="square" stroke-linejoin="round"/>
<path d="M5.79004 213.67V225.25" stroke="#1F0202" stroke-width="2" stroke-linecap="square" stroke-linejoin="round"/>
<path d="M11.58 219.46H0" stroke="#1F0202" stroke-width="2" stroke-linecap="square" stroke-linejoin="round"/>
<path d="M80.8501 293.77V305.34" stroke="#1F0202" stroke-width="2" stroke-linecap="square" stroke-linejoin="round"/>
<path d="M86.6401 299.56H75.0601" stroke="#1F0202" stroke-width="2" stroke-linecap="square" stroke-linejoin="round"/>
<path d="M55.8301 293.77V305.34" stroke="#1F0202" stroke-width="2" stroke-linecap="square" stroke-linejoin="round"/>
<path d="M61.62 299.56H50.04" stroke="#1F0202" stroke-width="2" stroke-linecap="square" stroke-linejoin="round"/>
<path d="M30.8101 293.77V305.34" stroke="#1F0202" stroke-width="2" stroke-linecap="square" stroke-linejoin="round"/>
<path d="M36.6 299.56H25.02" stroke="#1F0202" stroke-width="2" stroke-linecap="square" stroke-linejoin="round"/>
<path d="M5.79004 293.77V305.34" stroke="#1F0202" stroke-width="2" stroke-linecap="square" stroke-linejoin="round"/>
<path d="M11.58 299.56H0" stroke="#1F0202" stroke-width="2" stroke-linecap="square" stroke-linejoin="round"/>
<path d="M80.8501 160.4V171.98" stroke="#1F0202" stroke-width="2" stroke-linecap="square" stroke-linejoin="round"/>
<path d="M86.6401 166.19H75.0601" stroke="#1F0202" stroke-width="2" stroke-linecap="square" stroke-linejoin="round"/>
<path d="M55.8301 160.4V171.98" stroke="#1F0202" stroke-width="2" stroke-linecap="square" stroke-linejoin="round"/>
<path d="M61.62 166.19H50.04" stroke="#1F0202" stroke-width="2" stroke-linecap="square" stroke-linejoin="round"/>
<path d="M30.8101 160.4V171.98" stroke="#1F0202" stroke-width="2" stroke-linecap="square" stroke-linejoin="round"/>
<path d="M36.6 166.19H25.02" stroke="#1F0202" stroke-width="2" stroke-linecap="square" stroke-linejoin="round"/>
<path d="M5.79004 160.4V171.98" stroke="#1F0202" stroke-width="2" stroke-linecap="square" stroke-linejoin="round"/>
<path d="M11.58 166.19H0" stroke="#1F0202" stroke-width="2" stroke-linecap="square" stroke-linejoin="round"/>
<path d="M80.8501 133.7V145.28" stroke="#1F0202" stroke-width="2" stroke-linecap="square" stroke-linejoin="round"/>
<path d="M86.6401 139.49H75.0601" stroke="#1F0202" stroke-width="2" stroke-linecap="square" stroke-linejoin="round"/>
<path d="M55.8301 133.7V145.28" stroke="#1F0202" stroke-width="2" stroke-linecap="square" stroke-linejoin="round"/>
<path d="M61.62 139.49H50.04" stroke="#1F0202" stroke-width="2" stroke-linecap="square" stroke-linejoin="round"/>
<path d="M30.8101 133.7V145.28" stroke="#1F0202" stroke-width="2" stroke-linecap="square" stroke-linejoin="round"/>
<path d="M36.6 139.49H25.02" stroke="#1F0202" stroke-width="2" stroke-linecap="square" stroke-linejoin="round"/>
<path d="M5.79004 133.7V145.28" stroke="#1F0202" stroke-width="2" stroke-linecap="square" stroke-linejoin="round"/>
<path d="M11.58 139.49H0" stroke="#1F0202" stroke-width="2" stroke-linecap="square" stroke-linejoin="round"/>
<path d="M80.8501 107V118.58" stroke="#1F0202" stroke-width="2" stroke-linecap="square" stroke-linejoin="round"/>
<path d="M86.6401 112.79H75.0601" stroke="#1F0202" stroke-width="2" stroke-linecap="square" stroke-linejoin="round"/>
<path d="M55.8301 107V118.58" stroke="#1F0202" stroke-width="2" stroke-linecap="square" stroke-linejoin="round"/>
<path d="M61.62 112.79H50.04" stroke="#1F0202" stroke-width="2" stroke-linecap="square" stroke-linejoin="round"/>
<path d="M30.8101 107V118.58" stroke="#1F0202" stroke-width="2" stroke-linecap="square" stroke-linejoin="round"/>
<path d="M36.6 112.79H25.02" stroke="#1F0202" stroke-width="2" stroke-linecap="square" stroke-linejoin="round"/>
<path d="M5.79004 107V118.58" stroke="#1F0202" stroke-width="2" stroke-linecap="square" stroke-linejoin="round"/>
<path d="M11.58 112.79H0" stroke="#1F0202" stroke-width="2" stroke-linecap="square" stroke-linejoin="round"/>
<path d="M80.8501 187.1V198.67" stroke="#1F0202" stroke-width="2" stroke-linecap="square" stroke-linejoin="round"/>
<path d="M86.6401 192.89H75.0601" stroke="#1F0202" stroke-width="2" stroke-linecap="square" stroke-linejoin="round"/>
<path d="M55.8301 187.1V198.67" stroke="#1F0202" stroke-width="2" stroke-linecap="square" stroke-linejoin="round"/>
<path d="M61.62 192.89H50.04" stroke="#1F0202" stroke-width="2" stroke-linecap="square" stroke-linejoin="round"/>
<path d="M30.8101 187.1V198.67" stroke="#1F0202" stroke-width="2" stroke-linecap="square" stroke-linejoin="round"/>
<path d="M36.6 192.89H25.02" stroke="#1F0202" stroke-width="2" stroke-linecap="square" stroke-linejoin="round"/>
<path d="M5.79004 187.1V198.67" stroke="#1F0202" stroke-width="2" stroke-linecap="square" stroke-linejoin="round"/>
<path d="M11.58 192.89H0" stroke="#1F0202" stroke-width="2" stroke-linecap="square" stroke-linejoin="round"/>
<path d="M80.8501 53.3999V64.9799" stroke="#1F0202" stroke-width="2" stroke-linecap="square" stroke-linejoin="round"/>
<path d="M86.6401 59.1899H75.0601" stroke="#1F0202" stroke-width="2" stroke-linecap="square" stroke-linejoin="round"/>
<path d="M55.8301 53.3999V64.9799" stroke="#1F0202" stroke-width="2" stroke-linecap="square" stroke-linejoin="round"/>
<path d="M61.62 59.1899H50.04" stroke="#1F0202" stroke-width="2" stroke-linecap="square" stroke-linejoin="round"/>
<path d="M30.8101 53.3999V64.9799" stroke="#1F0202" stroke-width="2" stroke-linecap="square" stroke-linejoin="round"/>
<path d="M36.6 59.1899H25.02" stroke="#1F0202" stroke-width="2" stroke-linecap="square" stroke-linejoin="round"/>
<path d="M5.79004 53.3999V64.9799" stroke="#1F0202" stroke-width="2" stroke-linecap="square" stroke-linejoin="round"/>
<path d="M11.58 59.1899H0" stroke="#1F0202" stroke-width="2" stroke-linecap="square" stroke-linejoin="round"/>
<path d="M80.8501 26.7V38.2799" stroke="#1F0202" stroke-width="2" stroke-linecap="square" stroke-linejoin="round"/>
<path d="M86.6401 32.49H75.0601" stroke="#1F0202" stroke-width="2" stroke-linecap="square" stroke-linejoin="round"/>
<path d="M55.8301 26.7V38.2799" stroke="#1F0202" stroke-width="2" stroke-linecap="square" stroke-linejoin="round"/>
<path d="M61.62 32.49H50.04" stroke="#1F0202" stroke-width="2" stroke-linecap="square" stroke-linejoin="round"/>
<path d="M30.8101 26.7V38.2799" stroke="#1F0202" stroke-width="2" stroke-linecap="square" stroke-linejoin="round"/>
<path d="M36.6 32.49H25.02" stroke="#1F0202" stroke-width="2" stroke-linecap="square" stroke-linejoin="round"/>
<path d="M5.79004 26.7V38.2799" stroke="#1F0202" stroke-width="2" stroke-linecap="square" stroke-linejoin="round"/>
<path d="M11.58 32.49H0" stroke="#1F0202" stroke-width="2" stroke-linecap="square" stroke-linejoin="round"/>
<path d="M80.8501 0V11.58" stroke="#1F0202" stroke-width="2" stroke-linecap="square" stroke-linejoin="round"/>
<path d="M86.6401 5.79004H75.0601" stroke="#1F0202" stroke-width="2" stroke-linecap="square" stroke-linejoin="round"/>
<path d="M55.8301 0V11.58" stroke="#1F0202" stroke-width="2" stroke-linecap="square" stroke-linejoin="round"/>
<path d="M61.62 5.79004H50.04" stroke="#1F0202" stroke-width="2" stroke-linecap="square" stroke-linejoin="round"/>
<path d="M30.8101 0V11.58" stroke="#1F0202" stroke-width="2" stroke-linecap="square" stroke-linejoin="round"/>
<path d="M36.6 5.79004H25.02" stroke="#1F0202" stroke-width="2" stroke-linecap="square" stroke-linejoin="round"/>
<path d="M5.79004 0V11.58" stroke="#1F0202" stroke-width="2" stroke-linecap="square" stroke-linejoin="round"/>
<path d="M11.58 5.79004H0" stroke="#1F0202" stroke-width="2" stroke-linecap="square" stroke-linejoin="round"/>
<path d="M80.8501 80.0999V91.6699" stroke="#1F0202" stroke-width="2" stroke-linecap="square" stroke-linejoin="round"/>
<path d="M86.6401 85.8899H75.0601" stroke="#1F0202" stroke-width="2" stroke-linecap="square" stroke-linejoin="round"/>
<path d="M55.8301 80.0999V91.6699" stroke="#1F0202" stroke-width="2" stroke-linecap="square" stroke-linejoin="round"/>
<path d="M61.62 85.8899H50.04" stroke="#1F0202" stroke-width="2" stroke-linecap="square" stroke-linejoin="round"/>
<path d="M30.8101 80.0999V91.6699" stroke="#1F0202" stroke-width="2" stroke-linecap="square" stroke-linejoin="round"/>
<path d="M36.6 85.8899H25.02" stroke="#1F0202" stroke-width="2" stroke-linecap="square" stroke-linejoin="round"/>
<path d="M5.79004 80.0999V91.6699" stroke="#1F0202" stroke-width="2" stroke-linecap="square" stroke-linejoin="round"/>
<path d="M11.58 85.8899H0" stroke="#1F0202" stroke-width="2" stroke-linecap="square" stroke-linejoin="round"/>
<path d="M180.49 585.41V596.99" stroke="#1F0202" stroke-width="2" stroke-linecap="square" stroke-linejoin="round"/>
<path d="M186.28 591.2H174.7" stroke="#1F0202" stroke-width="2" stroke-linecap="square" stroke-linejoin="round"/>
<path d="M155.47 585.41V596.99" stroke="#1F0202" stroke-width="2" stroke-linecap="square" stroke-linejoin="round"/>
<path d="M161.26 591.2H149.68" stroke="#1F0202" stroke-width="2" stroke-linecap="square" stroke-linejoin="round"/>
<path d="M130.45 585.41V596.99" stroke="#1F0202" stroke-width="2" stroke-linecap="square" stroke-linejoin="round"/>
<path d="M136.24 591.2H124.66" stroke="#1F0202" stroke-width="2" stroke-linecap="square" stroke-linejoin="round"/>
<path d="M105.43 585.41V596.99" stroke="#1F0202" stroke-width="2" stroke-linecap="square" stroke-linejoin="round"/>
<path d="M111.22 591.2H99.6401" stroke="#1F0202" stroke-width="2" stroke-linecap="square" stroke-linejoin="round"/>
<path d="M180.49 558.71V570.29" stroke="#1F0202" stroke-width="2" stroke-linecap="square" stroke-linejoin="round"/>
<path d="M186.28 564.5H174.7" stroke="#1F0202" stroke-width="2" stroke-linecap="square" stroke-linejoin="round"/>
<path d="M155.47 558.71V570.29" stroke="#1F0202" stroke-width="2" stroke-linecap="square" stroke-linejoin="round"/>
<path d="M161.26 564.5H149.68" stroke="#1F0202" stroke-width="2" stroke-linecap="square" stroke-linejoin="round"/>
<path d="M130.45 558.71V570.29" stroke="#1F0202" stroke-width="2" stroke-linecap="square" stroke-linejoin="round"/>
<path d="M136.24 564.5H124.66" stroke="#1F0202" stroke-width="2" stroke-linecap="square" stroke-linejoin="round"/>
<path d="M105.43 558.71V570.29" stroke="#1F0202" stroke-width="2" stroke-linecap="square" stroke-linejoin="round"/>
<path d="M111.22 564.5H99.6401" stroke="#1F0202" stroke-width="2" stroke-linecap="square" stroke-linejoin="round"/>
<path d="M180.49 532.01V543.59" stroke="#1F0202" stroke-width="2" stroke-linecap="square" stroke-linejoin="round"/>
<path d="M186.28 537.8H174.7" stroke="#1F0202" stroke-width="2" stroke-linecap="square" stroke-linejoin="round"/>
<path d="M155.47 532.01V543.59" stroke="#1F0202" stroke-width="2" stroke-linecap="square" stroke-linejoin="round"/>
<path d="M161.26 537.8H149.68" stroke="#1F0202" stroke-width="2" stroke-linecap="square" stroke-linejoin="round"/>
<path d="M130.45 532.01V543.59" stroke="#1F0202" stroke-width="2" stroke-linecap="square" stroke-linejoin="round"/>
<path d="M136.24 537.8H124.66" stroke="#1F0202" stroke-width="2" stroke-linecap="square" stroke-linejoin="round"/>
<path d="M105.43 532.01V543.59" stroke="#1F0202" stroke-width="2" stroke-linecap="square" stroke-linejoin="round"/>
<path d="M111.22 537.8H99.6401" stroke="#1F0202" stroke-width="2" stroke-linecap="square" stroke-linejoin="round"/>
<path d="M180.49 612.11V623.68" stroke="#1F0202" stroke-width="2" stroke-linecap="square" stroke-linejoin="round"/>
<path d="M186.28 617.9H174.7" stroke="#1F0202" stroke-width="2" stroke-linecap="square" stroke-linejoin="round"/>
<path d="M155.47 612.11V623.68" stroke="#1F0202" stroke-width="2" stroke-linecap="square" stroke-linejoin="round"/>
<path d="M161.26 617.9H149.68" stroke="#1F0202" stroke-width="2" stroke-linecap="square" stroke-linejoin="round"/>
<path d="M130.45 612.11V623.68" stroke="#1F0202" stroke-width="2" stroke-linecap="square" stroke-linejoin="round"/>
<path d="M136.24 617.9H124.66" stroke="#1F0202" stroke-width="2" stroke-linecap="square" stroke-linejoin="round"/>
<path d="M105.43 612.11V623.68" stroke="#1F0202" stroke-width="2" stroke-linecap="square" stroke-linejoin="round"/>
<path d="M111.22 617.9H99.6401" stroke="#1F0202" stroke-width="2" stroke-linecap="square" stroke-linejoin="round"/>
<path d="M180.49 478.74V490.32" stroke="#1F0202" stroke-width="2" stroke-linecap="square" stroke-linejoin="round"/>
<path d="M186.28 484.53H174.7" stroke="#1F0202" stroke-width="2" stroke-linecap="square" stroke-linejoin="round"/>
<path d="M155.47 478.74V490.32" stroke="#1F0202" stroke-width="2" stroke-linecap="square" stroke-linejoin="round"/>
<path d="M161.26 484.53H149.68" stroke="#1F0202" stroke-width="2" stroke-linecap="square" stroke-linejoin="round"/>
<path d="M130.45 478.74V490.32" stroke="#1F0202" stroke-width="2" stroke-linecap="square" stroke-linejoin="round"/>
<path d="M136.24 484.53H124.66" stroke="#1F0202" stroke-width="2" stroke-linecap="square" stroke-linejoin="round"/>
<path d="M105.43 478.74V490.32" stroke="#1F0202" stroke-width="2" stroke-linecap="square" stroke-linejoin="round"/>
<path d="M111.22 484.53H99.6401" stroke="#1F0202" stroke-width="2" stroke-linecap="square" stroke-linejoin="round"/>
<path d="M180.49 452.04V463.62" stroke="#1F0202" stroke-width="2" stroke-linecap="square" stroke-linejoin="round"/>
<path d="M186.28 457.83H174.7" stroke="#1F0202" stroke-width="2" stroke-linecap="square" stroke-linejoin="round"/>
<path d="M155.47 452.04V463.62" stroke="#1F0202" stroke-width="2" stroke-linecap="square" stroke-linejoin="round"/>
<path d="M161.26 457.83H149.68" stroke="#1F0202" stroke-width="2" stroke-linecap="square" stroke-linejoin="round"/>
<path d="M130.45 452.04V463.62" stroke="#1F0202" stroke-width="2" stroke-linecap="square" stroke-linejoin="round"/>
<path d="M136.24 457.83H124.66" stroke="#1F0202" stroke-width="2" stroke-linecap="square" stroke-linejoin="round"/>
<path d="M105.43 452.04V463.62" stroke="#1F0202" stroke-width="2" stroke-linecap="square" stroke-linejoin="round"/>
<path d="M111.22 457.83H99.6401" stroke="#1F0202" stroke-width="2" stroke-linecap="square" stroke-linejoin="round"/>
<path d="M180.49 425.34V436.92" stroke="#1F0202" stroke-width="2" stroke-linecap="square" stroke-linejoin="round"/>
<path d="M186.28 431.13H174.7" stroke="#1F0202" stroke-width="2" stroke-linecap="square" stroke-linejoin="round"/>
<path d="M155.47 425.34V436.92" stroke="#1F0202" stroke-width="2" stroke-linecap="square" stroke-linejoin="round"/>
<path d="M161.26 431.13H149.68" stroke="#1F0202" stroke-width="2" stroke-linecap="square" stroke-linejoin="round"/>
<path d="M130.45 425.34V436.92" stroke="#1F0202" stroke-width="2" stroke-linecap="square" stroke-linejoin="round"/>
<path d="M136.24 431.13H124.66" stroke="#1F0202" stroke-width="2" stroke-linecap="square" stroke-linejoin="round"/>
<path d="M105.43 425.34V436.92" stroke="#1F0202" stroke-width="2" stroke-linecap="square" stroke-linejoin="round"/>
<path d="M111.22 431.13H99.6401" stroke="#1F0202" stroke-width="2" stroke-linecap="square" stroke-linejoin="round"/>
<path d="M180.49 505.44V517.01" stroke="#1F0202" stroke-width="2" stroke-linecap="square" stroke-linejoin="round"/>
<path d="M186.28 511.23H174.7" stroke="#1F0202" stroke-width="2" stroke-linecap="square" stroke-linejoin="round"/>
<path d="M155.47 505.44V517.01" stroke="#1F0202" stroke-width="2" stroke-linecap="square" stroke-linejoin="round"/>
<path d="M161.26 511.23H149.68" stroke="#1F0202" stroke-width="2" stroke-linecap="square" stroke-linejoin="round"/>
<path d="M130.45 505.44V517.01" stroke="#1F0202" stroke-width="2" stroke-linecap="square" stroke-linejoin="round"/>
<path d="M136.24 511.23H124.66" stroke="#1F0202" stroke-width="2" stroke-linecap="square" stroke-linejoin="round"/>
<path d="M105.43 505.44V517.01" stroke="#1F0202" stroke-width="2" stroke-linecap="square" stroke-linejoin="round"/>
<path d="M111.22 511.23H99.6401" stroke="#1F0202" stroke-width="2" stroke-linecap="square" stroke-linejoin="round"/>
<path d="M180.49 371.74V383.32" stroke="#1F0202" stroke-width="2" stroke-linecap="square" stroke-linejoin="round"/>
<path d="M186.28 377.53H174.7" stroke="#1F0202" stroke-width="2" stroke-linecap="square" stroke-linejoin="round"/>
<path d="M155.47 371.74V383.32" stroke="#1F0202" stroke-width="2" stroke-linecap="square" stroke-linejoin="round"/>
<path d="M161.26 377.53H149.68" stroke="#1F0202" stroke-width="2" stroke-linecap="square" stroke-linejoin="round"/>
<path d="M130.45 371.74V383.32" stroke="#1F0202" stroke-width="2" stroke-linecap="square" stroke-linejoin="round"/>
<path d="M136.24 377.53H124.66" stroke="#1F0202" stroke-width="2" stroke-linecap="square" stroke-linejoin="round"/>
<path d="M105.43 371.74V383.32" stroke="#1F0202" stroke-width="2" stroke-linecap="square" stroke-linejoin="round"/>
<path d="M111.22 377.53H99.6401" stroke="#1F0202" stroke-width="2" stroke-linecap="square" stroke-linejoin="round"/>
<path d="M180.49 345.04V356.62" stroke="#1F0202" stroke-width="2" stroke-linecap="square" stroke-linejoin="round"/>
<path d="M186.28 350.83H174.7" stroke="#1F0202" stroke-width="2" stroke-linecap="square" stroke-linejoin="round"/>
<path d="M155.47 345.04V356.62" stroke="#1F0202" stroke-width="2" stroke-linecap="square" stroke-linejoin="round"/>
<path d="M161.26 350.83H149.68" stroke="#1F0202" stroke-width="2" stroke-linecap="square" stroke-linejoin="round"/>
<path d="M130.45 345.04V356.62" stroke="#1F0202" stroke-width="2" stroke-linecap="square" stroke-linejoin="round"/>
<path d="M136.24 350.83H124.66" stroke="#1F0202" stroke-width="2" stroke-linecap="square" stroke-linejoin="round"/>
<path d="M105.43 345.04V356.62" stroke="#1F0202" stroke-width="2" stroke-linecap="square" stroke-linejoin="round"/>
<path d="M111.22 350.83H99.6401" stroke="#1F0202" stroke-width="2" stroke-linecap="square" stroke-linejoin="round"/>
<path d="M180.49 318.34V329.92" stroke="#1F0202" stroke-width="2" stroke-linecap="square" stroke-linejoin="round"/>
<path d="M186.28 324.13H174.7" stroke="#1F0202" stroke-width="2" stroke-linecap="square" stroke-linejoin="round"/>
<path d="M155.47 318.34V329.92" stroke="#1F0202" stroke-width="2" stroke-linecap="square" stroke-linejoin="round"/>
<path d="M161.26 324.13H149.68" stroke="#1F0202" stroke-width="2" stroke-linecap="square" stroke-linejoin="round"/>
<path d="M130.45 318.34V329.92" stroke="#1F0202" stroke-width="2" stroke-linecap="square" stroke-linejoin="round"/>
<path d="M136.24 324.13H124.66" stroke="#1F0202" stroke-width="2" stroke-linecap="square" stroke-linejoin="round"/>
<path d="M105.43 318.34V329.92" stroke="#1F0202" stroke-width="2" stroke-linecap="square" stroke-linejoin="round"/>
<path d="M111.22 324.13H99.6401" stroke="#1F0202" stroke-width="2" stroke-linecap="square" stroke-linejoin="round"/>
<path d="M180.49 398.44V410.01" stroke="#1F0202" stroke-width="2" stroke-linecap="square" stroke-linejoin="round"/>
<path d="M186.28 404.23H174.7" stroke="#1F0202" stroke-width="2" stroke-linecap="square" stroke-linejoin="round"/>
<path d="M155.47 398.44V410.01" stroke="#1F0202" stroke-width="2" stroke-linecap="square" stroke-linejoin="round"/>
<path d="M161.26 404.23H149.68" stroke="#1F0202" stroke-width="2" stroke-linecap="square" stroke-linejoin="round"/>
<path d="M130.45 398.44V410.01" stroke="#1F0202" stroke-width="2" stroke-linecap="square" stroke-linejoin="round"/>
<path d="M136.24 404.23H124.66" stroke="#1F0202" stroke-width="2" stroke-linecap="square" stroke-linejoin="round"/>
<path d="M105.43 398.44V410.01" stroke="#1F0202" stroke-width="2" stroke-linecap="square" stroke-linejoin="round"/>
<path d="M111.22 404.23H99.6401" stroke="#1F0202" stroke-width="2" stroke-linecap="square" stroke-linejoin="round"/>
<path d="M80.8501 585.41V596.99" stroke="#1F0202" stroke-width="2" stroke-linecap="square" stroke-linejoin="round"/>
<path d="M86.6401 591.2H75.0601" stroke="#1F0202" stroke-width="2" stroke-linecap="square" stroke-linejoin="round"/>
<path d="M55.8301 585.41V596.99" stroke="#1F0202" stroke-width="2" stroke-linecap="square" stroke-linejoin="round"/>
<path d="M61.62 591.2H50.04" stroke="#1F0202" stroke-width="2" stroke-linecap="square" stroke-linejoin="round"/>
<path d="M30.8101 585.41V596.99" stroke="#1F0202" stroke-width="2" stroke-linecap="square" stroke-linejoin="round"/>
<path d="M36.6 591.2H25.02" stroke="#1F0202" stroke-width="2" stroke-linecap="square" stroke-linejoin="round"/>
<path d="M5.79004 585.41V596.99" stroke="#1F0202" stroke-width="2" stroke-linecap="square" stroke-linejoin="round"/>
<path d="M11.58 591.2H0" stroke="#1F0202" stroke-width="2" stroke-linecap="square" stroke-linejoin="round"/>
<path d="M80.8501 558.71V570.29" stroke="#1F0202" stroke-width="2" stroke-linecap="square" stroke-linejoin="round"/>
<path d="M86.6401 564.5H75.0601" stroke="#1F0202" stroke-width="2" stroke-linecap="square" stroke-linejoin="round"/>
<path d="M55.8301 558.71V570.29" stroke="#1F0202" stroke-width="2" stroke-linecap="square" stroke-linejoin="round"/>
<path d="M61.62 564.5H50.04" stroke="#1F0202" stroke-width="2" stroke-linecap="square" stroke-linejoin="round"/>
<path d="M30.8101 558.71V570.29" stroke="#1F0202" stroke-width="2" stroke-linecap="square" stroke-linejoin="round"/>
<path d="M36.6 564.5H25.02" stroke="#1F0202" stroke-width="2" stroke-linecap="square" stroke-linejoin="round"/>
<path d="M5.79004 558.71V570.29" stroke="#1F0202" stroke-width="2" stroke-linecap="square" stroke-linejoin="round"/>
<path d="M11.58 564.5H0" stroke="#1F0202" stroke-width="2" stroke-linecap="square" stroke-linejoin="round"/>
<path d="M80.8501 532.01V543.59" stroke="#1F0202" stroke-width="2" stroke-linecap="square" stroke-linejoin="round"/>
<path d="M86.6401 537.8H75.0601" stroke="#1F0202" stroke-width="2" stroke-linecap="square" stroke-linejoin="round"/>
<path d="M55.8301 532.01V543.59" stroke="#1F0202" stroke-width="2" stroke-linecap="square" stroke-linejoin="round"/>
<path d="M61.62 537.8H50.04" stroke="#1F0202" stroke-width="2" stroke-linecap="square" stroke-linejoin="round"/>
<path d="M30.8101 532.01V543.59" stroke="#1F0202" stroke-width="2" stroke-linecap="square" stroke-linejoin="round"/>
<path d="M36.6 537.8H25.02" stroke="#1F0202" stroke-width="2" stroke-linecap="square" stroke-linejoin="round"/>
<path d="M5.79004 532.01V543.59" stroke="#1F0202" stroke-width="2" stroke-linecap="square" stroke-linejoin="round"/>
<path d="M11.58 537.8H0" stroke="#1F0202" stroke-width="2" stroke-linecap="square" stroke-linejoin="round"/>
<path d="M80.8501 612.11V623.68" stroke="#1F0202" stroke-width="2" stroke-linecap="square" stroke-linejoin="round"/>
<path d="M86.6401 617.9H75.0601" stroke="#1F0202" stroke-width="2" stroke-linecap="square" stroke-linejoin="round"/>
<path d="M55.8301 612.11V623.68" stroke="#1F0202" stroke-width="2" stroke-linecap="square" stroke-linejoin="round"/>
<path d="M61.62 617.9H50.04" stroke="#1F0202" stroke-width="2" stroke-linecap="square" stroke-linejoin="round"/>
<path d="M30.8101 612.11V623.68" stroke="#1F0202" stroke-width="2" stroke-linecap="square" stroke-linejoin="round"/>
<path d="M36.6 617.9H25.02" stroke="#1F0202" stroke-width="2" stroke-linecap="square" stroke-linejoin="round"/>
<path d="M5.79004 612.11V623.68" stroke="#1F0202" stroke-width="2" stroke-linecap="square" stroke-linejoin="round"/>
<path d="M11.58 617.9H0" stroke="#1F0202" stroke-width="2" stroke-linecap="square" stroke-linejoin="round"/>
<path d="M80.8501 478.74V490.32" stroke="#1F0202" stroke-width="2" stroke-linecap="square" stroke-linejoin="round"/>
<path d="M86.6401 484.53H75.0601" stroke="#1F0202" stroke-width="2" stroke-linecap="square" stroke-linejoin="round"/>
<path d="M55.8301 478.74V490.32" stroke="#1F0202" stroke-width="2" stroke-linecap="square" stroke-linejoin="round"/>
<path d="M61.62 484.53H50.04" stroke="#1F0202" stroke-width="2" stroke-linecap="square" stroke-linejoin="round"/>
<path d="M30.8101 478.74V490.32" stroke="#1F0202" stroke-width="2" stroke-linecap="square" stroke-linejoin="round"/>
<path d="M36.6 484.53H25.02" stroke="#1F0202" stroke-width="2" stroke-linecap="square" stroke-linejoin="round"/>
<path d="M5.79004 478.74V490.32" stroke="#1F0202" stroke-width="2" stroke-linecap="square" stroke-linejoin="round"/>
<path d="M11.58 484.53H0" stroke="#1F0202" stroke-width="2" stroke-linecap="square" stroke-linejoin="round"/>
<path d="M80.8501 452.04V463.62" stroke="#1F0202" stroke-width="2" stroke-linecap="square" stroke-linejoin="round"/>
<path d="M86.6401 457.83H75.0601" stroke="#1F0202" stroke-width="2" stroke-linecap="square" stroke-linejoin="round"/>
<path d="M55.8301 452.04V463.62" stroke="#1F0202" stroke-width="2" stroke-linecap="square" stroke-linejoin="round"/>
<path d="M61.62 457.83H50.04" stroke="#1F0202" stroke-width="2" stroke-linecap="square" stroke-linejoin="round"/>
<path d="M30.8101 452.04V463.62" stroke="#1F0202" stroke-width="2" stroke-linecap="square" stroke-linejoin="round"/>
<path d="M36.6 457.83H25.02" stroke="#1F0202" stroke-width="2" stroke-linecap="square" stroke-linejoin="round"/>
<path d="M5.79004 452.04V463.62" stroke="#1F0202" stroke-width="2" stroke-linecap="square" stroke-linejoin="round"/>
<path d="M11.58 457.83H0" stroke="#1F0202" stroke-width="2" stroke-linecap="square" stroke-linejoin="round"/>
<path d="M80.8501 425.34V436.92" stroke="#1F0202" stroke-width="2" stroke-linecap="square" stroke-linejoin="round"/>
<path d="M86.6401 431.13H75.0601" stroke="#1F0202" stroke-width="2" stroke-linecap="square" stroke-linejoin="round"/>
<path d="M55.8301 425.34V436.92" stroke="#1F0202" stroke-width="2" stroke-linecap="square" stroke-linejoin="round"/>
<path d="M61.62 431.13H50.04" stroke="#1F0202" stroke-width="2" stroke-linecap="square" stroke-linejoin="round"/>
<path d="M30.8101 425.34V436.92" stroke="#1F0202" stroke-width="2" stroke-linecap="square" stroke-linejoin="round"/>
<path d="M36.6 431.13H25.02" stroke="#1F0202" stroke-width="2" stroke-linecap="square" stroke-linejoin="round"/>
<path d="M5.79004 425.34V436.92" stroke="#1F0202" stroke-width="2" stroke-linecap="square" stroke-linejoin="round"/>
<path d="M11.58 431.13H0" stroke="#1F0202" stroke-width="2" stroke-linecap="square" stroke-linejoin="round"/>
<path d="M80.8501 505.44V517.01" stroke="#1F0202" stroke-width="2" stroke-linecap="square" stroke-linejoin="round"/>
<path d="M86.6401 511.23H75.0601" stroke="#1F0202" stroke-width="2" stroke-linecap="square" stroke-linejoin="round"/>
<path d="M55.8301 505.44V517.01" stroke="#1F0202" stroke-width="2" stroke-linecap="square" stroke-linejoin="round"/>
<path d="M61.62 511.23H50.04" stroke="#1F0202" stroke-width="2" stroke-linecap="square" stroke-linejoin="round"/>
<path d="M30.8101 505.44V517.01" stroke="#1F0202" stroke-width="2" stroke-linecap="square" stroke-linejoin="round"/>
<path d="M36.6 511.23H25.02" stroke="#1F0202" stroke-width="2" stroke-linecap="square" stroke-linejoin="round"/>
<path d="M5.79004 505.44V517.01" stroke="#1F0202" stroke-width="2" stroke-linecap="square" stroke-linejoin="round"/>
<path d="M11.58 511.23H0" stroke="#1F0202" stroke-width="2" stroke-linecap="square" stroke-linejoin="round"/>
<path d="M80.8501 371.74V383.32" stroke="#1F0202" stroke-width="2" stroke-linecap="square" stroke-linejoin="round"/>
<path d="M86.6401 377.53H75.0601" stroke="#1F0202" stroke-width="2" stroke-linecap="square" stroke-linejoin="round"/>
<path d="M55.8301 371.74V383.32" stroke="#1F0202" stroke-width="2" stroke-linecap="square" stroke-linejoin="round"/>
<path d="M61.62 377.53H50.04" stroke="#1F0202" stroke-width="2" stroke-linecap="square" stroke-linejoin="round"/>
<path d="M30.8101 371.74V383.32" stroke="#1F0202" stroke-width="2" stroke-linecap="square" stroke-linejoin="round"/>
<path d="M36.6 377.53H25.02" stroke="#1F0202" stroke-width="2" stroke-linecap="square" stroke-linejoin="round"/>
<path d="M5.79004 371.74V383.32" stroke="#1F0202" stroke-width="2" stroke-linecap="square" stroke-linejoin="round"/>
<path d="M11.58 377.53H0" stroke="#1F0202" stroke-width="2" stroke-linecap="square" stroke-linejoin="round"/>
<path d="M80.8501 345.04V356.62" stroke="#1F0202" stroke-width="2" stroke-linecap="square" stroke-linejoin="round"/>
<path d="M86.6401 350.83H75.0601" stroke="#1F0202" stroke-width="2" stroke-linecap="square" stroke-linejoin="round"/>
<path d="M55.8301 345.04V356.62" stroke="#1F0202" stroke-width="2" stroke-linecap="square" stroke-linejoin="round"/>
<path d="M61.62 350.83H50.04" stroke="#1F0202" stroke-width="2" stroke-linecap="square" stroke-linejoin="round"/>
<path d="M30.8101 345.04V356.62" stroke="#1F0202" stroke-width="2" stroke-linecap="square" stroke-linejoin="round"/>
<path d="M36.6 350.83H25.02" stroke="#1F0202" stroke-width="2" stroke-linecap="square" stroke-linejoin="round"/>
<path d="M5.79004 345.04V356.62" stroke="#1F0202" stroke-width="2" stroke-linecap="square" stroke-linejoin="round"/>
<path d="M11.58 350.83H0" stroke="#1F0202" stroke-width="2" stroke-linecap="square" stroke-linejoin="round"/>
<path d="M80.8501 318.34V329.92" stroke="#1F0202" stroke-width="2" stroke-linecap="square" stroke-linejoin="round"/>
<path d="M86.6401 324.13H75.0601" stroke="#1F0202" stroke-width="2" stroke-linecap="square" stroke-linejoin="round"/>
<path d="M55.8301 318.34V329.92" stroke="#1F0202" stroke-width="2" stroke-linecap="square" stroke-linejoin="round"/>
<path d="M61.62 324.13H50.04" stroke="#1F0202" stroke-width="2" stroke-linecap="square" stroke-linejoin="round"/>
<path d="M30.8101 318.34V329.92" stroke="#1F0202" stroke-width="2" stroke-linecap="square" stroke-linejoin="round"/>
<path d="M36.6 324.13H25.02" stroke="#1F0202" stroke-width="2" stroke-linecap="square" stroke-linejoin="round"/>
<path d="M5.79004 318.34V329.92" stroke="#1F0202" stroke-width="2" stroke-linecap="square" stroke-linejoin="round"/>
<path d="M11.58 324.13H0" stroke="#1F0202" stroke-width="2" stroke-linecap="square" stroke-linejoin="round"/>
<path d="M80.8501 398.44V410.01" stroke="#1F0202" stroke-width="2" stroke-linecap="square" stroke-linejoin="round"/>
<path d="M86.6401 404.23H75.0601" stroke="#1F0202" stroke-width="2" stroke-linecap="square" stroke-linejoin="round"/>
<path d="M55.8301 398.44V410.01" stroke="#1F0202" stroke-width="2" stroke-linecap="square" stroke-linejoin="round"/>
<path d="M61.62 404.23H50.04" stroke="#1F0202" stroke-width="2" stroke-linecap="square" stroke-linejoin="round"/>
<path d="M30.8101 398.44V410.01" stroke="#1F0202" stroke-width="2" stroke-linecap="square" stroke-linejoin="round"/>
<path d="M36.6 404.23H25.02" stroke="#1F0202" stroke-width="2" stroke-linecap="square" stroke-linejoin="round"/>
<path d="M5.79004 398.44V410.01" stroke="#1F0202" stroke-width="2" stroke-linecap="square" stroke-linejoin="round"/>
<path d="M11.58 404.23H0" stroke="#1F0202" stroke-width="2" stroke-linecap="square" stroke-linejoin="round"/>
</g>
<defs>
<clipPath id="clip0_19_15594">
<rect width="186.28" height="636.68" fill="white"/>
</clipPath>
</defs>
</svg>
